<?xml version="1.0" encoding="UTF-8" standalone="no"?>
<!-- Created with Inkscape (http://www.inkscape.org/) -->

<svg
   xmlns:dc="http://purl.org/dc/elements/1.1/"
   xmlns:cc="http://creativecommons.org/ns#"
   xmlns:rdf="http://www.w3.org/1999/02/22-rdf-syntax-ns#"
   xmlns:svg="http://www.w3.org/2000/svg"
   xmlns="http://www.w3.org/2000/svg"
   xmlns:xlink="http://www.w3.org/1999/xlink"
   xmlns:sodipodi="http://sodipodi.sourceforge.net/DTD/sodipodi-0.dtd"
   xmlns:inkscape="http://www.inkscape.org/namespaces/inkscape"
   width="210mm"
   height="297mm"
   id="svg2"
   version="1.1"
   inkscape:version="0.48.2 r9819"
   sodipodi:docname="Zeichnung.svg">
  <defs
     id="defs4" />
  <g
     inkscape:label="Ebene 1"
     inkscape:groupmode="layer"
     id="layer1">
<g id="g5"><image y="820"    x="41"       id="image05"       xlink:href="file:///home/lukas/Dropbox/Studienfahrt Barcelona/Bilder Lisa/IMG_1232.JPG"       height="176"       width="235"        transform="rotate(2, 158, 908)"/><rect id="05" x="41" y="820" width="235" height="176" ry="0" style="fill:none;stroke:#ffffff;stroke-width:5;" transform="rotate(2, 158, 908)"/></g>
<g id="g10"><image y="639"    x="259"       id="image14"       xlink:href="file:///home/lukas/Dropbox/Studienfahrt Barcelona/Bilder Lisa/IMG_1246.JPG"       height="223"       width="167"        transform="rotate(2, 342, 750)"/><rect id="14" x="259" y="639" width="167" height="223" ry="0" style="fill:none;stroke:#ffffff;stroke-width:5;" transform="rotate(2, 342, 750)"/></g>
<g id="g2"><image y="371"    x="39"       id="image02"       xlink:href="file:///home/lukas/Dropbox/Studienfahrt Barcelona/Bilder Lisa/IMG_0940.jpg"       height="167"       width="223"        transform="rotate(0, 150, 454)"/><rect id="02" x="39" y="371" width="223" height="167" ry="0" style="fill:none;stroke:#ffffff;stroke-width:5;" transform="rotate(0, 150, 454)"/></g>
<g id="g14"><image y="355"    x="431"       id="image22"       xlink:href="file:///home/lukas/Dropbox/Studienfahrt Barcelona/Bilder Lisa/IMG_1266.JPG"       height="178"       width="238"        transform="rotate(-5, 550, 444)"/><rect id="22" x="431" y="355" width="238" height="178" ry="0" style="fill:none;stroke:#ffffff;stroke-width:5;" transform="rotate(-5, 550, 444)"/></g>
<g id="g0"><image y="56"    x="36"       id="image00"       xlink:href="file:///home/lukas/Dropbox/Studienfahrt Barcelona/Bilder Lisa/IMG_1228.JPG"       height="173"       width="231"        transform="rotate(0, 151, 142)"/><rect id="00" x="36" y="56" width="231" height="173" ry="0" style="fill:none;stroke:#ffffff;stroke-width:5;" transform="rotate(0, 151, 142)"/></g>
<g id="g12"><image y="54"    x="424"       id="image20"       xlink:href="file:///home/lukas/Dropbox/Studienfahrt Barcelona/Bilder Lisa/IMG_0842.jpg"       height="176"       width="235"        transform="rotate(3, 541, 142)"/><rect id="20" x="424" y="54" width="235" height="176" ry="0" style="fill:none;stroke:#ffffff;stroke-width:5;" transform="rotate(3, 541, 142)"/></g>
<g id="g7"><image y="193"    x="256"       id="image11"       xlink:href="file:///home/lukas/Dropbox/Studienfahrt Barcelona/Bilder Lisa/IMG_1006.JPG"       height="224"       width="168"        transform="rotate(-3, 340, 305)"/><rect id="11" x="256" y="193" width="168" height="224" ry="0" style="fill:none;stroke:#ffffff;stroke-width:5;" transform="rotate(-3, 340, 305)"/></g>
<g id="g13"><image y="184"    x="458"       id="image21"       xlink:href="file:///home/lukas/Dropbox/Studienfahrt Barcelona/Bilder Lisa/IMG_0920.jpg"       height="230"       width="172"        transform="rotate(-4, 544, 299)"/><rect id="21" x="458" y="184" width="172" height="230" ry="0" style="fill:none;stroke:#ffffff;stroke-width:5;" transform="rotate(-4, 544, 299)"/></g>
<g id="g16"><image y="641"    x="469"       id="image24"       xlink:href="file:///home/lukas/Dropbox/Studienfahrt Barcelona/Bilder Lisa/IMG_1251.JPG"       height="236"       width="177"        transform="rotate(-5, 557, 759)"/><rect id="24" x="469" y="641" width="177" height="236" ry="0" style="fill:none;stroke:#ffffff;stroke-width:5;" transform="rotate(-5, 557, 759)"/></g>
<g id="g3"><image y="495"    x="58"       id="image03"       xlink:href="file:///home/lukas/Dropbox/Studienfahrt Barcelona/Bilder Lisa/IMG_0856.JPG"       height="228"       width="171"        transform="rotate(5, 143, 609)"/><rect id="03" x="58" y="495" width="171" height="228" ry="0" style="fill:none;stroke:#ffffff;stroke-width:5;" transform="rotate(5, 143, 609)"/></g>
<g id="g11"><image y="820"    x="235"       id="image15"       xlink:href="file:///home/lukas/Dropbox/Studienfahrt Barcelona/Bilder Lisa/IMG_1177.JPG"       height="171"       width="228"        transform="rotate(-3, 349, 905)"/><rect id="15" x="235" y="820" width="228" height="171" ry="0" style="fill:none;stroke:#ffffff;stroke-width:5;" transform="rotate(-3, 349, 905)"/></g>
<g id="g8"><image y="372"    x="230"       id="image12"       xlink:href="file:///home/lukas/Dropbox/Studienfahrt Barcelona/Bilder Lisa/IMG_0843.JPG"       height="176"       width="235"        transform="rotate(1, 347, 460)"/><rect id="12" x="230" y="372" width="235" height="176" ry="0" style="fill:none;stroke:#ffffff;stroke-width:5;" transform="rotate(1, 347, 460)"/></g>
<g id="g6"><image y="24"    x="260"       id="image10"       xlink:href="file:///home/lukas/Dropbox/Studienfahrt Barcelona/Bilder Lisa/IMG_1082.JPG"       height="237"       width="178"        transform="rotate(-4, 349, 142)"/><rect id="10" x="260" y="24" width="178" height="237" ry="0" style="fill:none;stroke:#ffffff;stroke-width:5;" transform="rotate(-4, 349, 142)"/></g>
<g id="g15"><image y="519"    x="432"       id="image23"       xlink:href="file:///home/lukas/Dropbox/Studienfahrt Barcelona/Bilder Lisa/IMG_0900.jpg"       height="166"       width="222"        transform="rotate(3, 543, 602)"/><rect id="23" x="432" y="519" width="222" height="166" ry="0" style="fill:none;stroke:#ffffff;stroke-width:5;" transform="rotate(3, 543, 602)"/></g>
<g id="g1"><image y="225"    x="37"       id="image01"       xlink:href="file:///home/lukas/Dropbox/Studienfahrt Barcelona/Bilder Lisa/IMG_1216.JPG"       height="171"       width="229"        transform="rotate(2, 151, 310)"/><rect id="01" x="37" y="225" width="229" height="171" ry="0" style="fill:none;stroke:#ffffff;stroke-width:5;" transform="rotate(2, 151, 310)"/></g>
<g id="g9"><image y="521"    x="246"       id="image13"       xlink:href="file:///home/lukas/Dropbox/Studienfahrt Barcelona/Bilder Lisa/IMG_1158.JPG"       height="170"       width="226"        transform="rotate(3, 359, 606)"/><rect id="13" x="246" y="521" width="226" height="170" ry="0" style="fill:none;stroke:#ffffff;stroke-width:5;" transform="rotate(3, 359, 606)"/></g>
<g id="g4"><image y="642"    x="64"       id="image04"       xlink:href="file:///home/lukas/Dropbox/Studienfahrt Barcelona/Bilder Lisa/IMG_1090.JPG"       height="223"       width="167"        transform="rotate(0, 147, 753)"/><rect id="04" x="64" y="642" width="167" height="223" ry="0" style="fill:none;stroke:#ffffff;stroke-width:5;" transform="rotate(0, 147, 753)"/></g>
<g id="g17"><image y="810"    x="441"       id="image25"       xlink:href="file:///home/lukas/Dropbox/Studienfahrt Barcelona/Bilder Lisa/IMG_0882.jpg"       height="174"       width="233"        transform="rotate(-1, 557, 897)"/><rect id="25" x="441" y="810" width="233" height="174" ry="0" style="fill:none;stroke:#ffffff;stroke-width:5;" transform="rotate(-1, 557, 897)"/></g>
  </g>
</svg>
