<?xml version="1.0" encoding="UTF-8" standalone="no"?>
<!-- Created with Inkscape (http://www.inkscape.org/) -->

<svg
   xmlns:dc="http://purl.org/dc/elements/1.1/"
   xmlns:cc="http://creativecommons.org/ns#"
   xmlns:rdf="http://www.w3.org/1999/02/22-rdf-syntax-ns#"
   xmlns:svg="http://www.w3.org/2000/svg"
   xmlns="http://www.w3.org/2000/svg"
   xmlns:xlink="http://www.w3.org/1999/xlink"
   xmlns:sodipodi="http://sodipodi.sourceforge.net/DTD/sodipodi-0.dtd"
   xmlns:inkscape="http://www.inkscape.org/namespaces/inkscape"
   width="210mm"
   height="297mm"
   id="svg2"
   version="1.1"
   inkscape:version="0.48.2 r9819"
   sodipodi:docname="Zeichnung.svg">
  <defs
     id="defs4" />
  <g
     inkscape:label="Ebene 1"
     inkscape:groupmode="layer"
     id="layer1">
<image y="219"    x="234"       id="image3063"       xlink:href="file:///home/lukas/Bilder/fichte/IMG_3262.JPG"       height="174"       width="233"        transform="rotate(3, 350, 306)"/><rect x="234" y="219" width="233" height="174" ry="0" style="fill:none;stroke:#ffffff;stroke-width:5;" transform="rotate(3, 350, 306)"/>
<image y="520"    x="229"       id="image3063"       xlink:href="file:///home/lukas/Bilder/fichte/IMG_3248.JPG"       height="170"       width="227"        transform="rotate(2, 342, 605)"/><rect x="229" y="520" width="227" height="170" ry="0" style="fill:none;stroke:#ffffff;stroke-width:5;" transform="rotate(2, 342, 605)"/>
<image y="365"    x="35"       id="image3063"       xlink:href="file:///home/lukas/Bilder/fichte/IMG_3273.JPG"       height="167"       width="223"        transform="rotate(1, 146, 448)"/><rect x="35" y="365" width="223" height="167" ry="0" style="fill:none;stroke:#ffffff;stroke-width:5;" transform="rotate(1, 146, 448)"/>
<image y="52"    x="40"       id="image3063"       xlink:href="file:///home/lukas/Bilder/fichte/IMG_3188.JPG"       height="178"       width="238"        transform="rotate(2, 159, 141)"/><rect x="40" y="52" width="238" height="178" ry="0" style="fill:none;stroke:#ffffff;stroke-width:5;" transform="rotate(2, 159, 141)"/>
<image y="371"    x="227"       id="image3063"       xlink:href="file:///home/lukas/Bilder/fichte/IMG_3227.JPG"       height="177"       width="236"        transform="rotate(5, 345, 459)"/><rect x="227" y="371" width="236" height="177" ry="0" style="fill:none;stroke:#ffffff;stroke-width:5;" transform="rotate(5, 345, 459)"/>
<image y="58"    x="236"       id="image3063"       xlink:href="file:///home/lukas/Bilder/fichte/IMG_3180.JPG"       height="179"       width="238"        transform="rotate(-1, 355, 147)"/><rect x="236" y="58" width="238" height="179" ry="0" style="fill:none;stroke:#ffffff;stroke-width:5;" transform="rotate(-1, 355, 147)"/>
<image y="811"    x="448"       id="image3063"       xlink:href="file:///home/lukas/Bilder/fichte/IMG_3256.JPG"       height="168"       width="224"        transform="rotate(1, 560, 895)"/><rect x="448" y="811" width="224" height="168" ry="0" style="fill:none;stroke:#ffffff;stroke-width:5;" transform="rotate(1, 560, 895)"/>
<image y="664"    x="425"       id="image3063"       xlink:href="file:///home/lukas/Bilder/fichte/IMG_3238.JPG"       height="179"       width="238"        transform="rotate(5, 544, 753)"/><rect x="425" y="664" width="238" height="179" ry="0" style="fill:none;stroke:#ffffff;stroke-width:5;" transform="rotate(5, 544, 753)"/>
<image y="809"    x="48"       id="image3063"       xlink:href="file:///home/lukas/Bilder/fichte/IMG_3208.JPG"       height="167"       width="223"        transform="rotate(1, 159, 892)"/><rect x="48" y="809" width="223" height="167" ry="0" style="fill:none;stroke:#ffffff;stroke-width:5;" transform="rotate(1, 159, 892)"/>
<image y="506"    x="441"       id="image3063"       xlink:href="file:///home/lukas/Bilder/fichte/IMG_3215.JPG"       height="169"       width="226"        transform="rotate(-4, 554, 590)"/><rect x="441" y="506" width="226" height="169" ry="0" style="fill:none;stroke:#ffffff;stroke-width:5;" transform="rotate(-4, 554, 590)"/>
<image y="807"    x="247"       id="image3063"       xlink:href="file:///home/lukas/Bilder/fichte/IMG_3228.JPG"       height="170"       width="227"        transform="rotate(4, 360, 892)"/><rect x="247" y="807" width="227" height="170" ry="0" style="fill:none;stroke:#ffffff;stroke-width:5;" transform="rotate(4, 360, 892)"/>
<image y="221"    x="444"       id="image3063"       xlink:href="file:///home/lukas/Bilder/fichte/IMG_3211.JPG"       height="168"       width="225"        transform="rotate(-1, 556, 305)"/><rect x="444" y="221" width="225" height="168" ry="0" style="fill:none;stroke:#ffffff;stroke-width:5;" transform="rotate(-1, 556, 305)"/>
<image y="57"    x="438"       id="image3063"       xlink:href="file:///home/lukas/Bilder/fichte/IMG_3277.JPG"       height="168"       width="224"        transform="rotate(1, 550, 141)"/><rect x="438" y="57" width="224" height="168" ry="0" style="fill:none;stroke:#ffffff;stroke-width:5;" transform="rotate(1, 550, 141)"/>
<image y="356"    x="436"       id="image3063"       xlink:href="file:///home/lukas/Bilder/fichte/IMG_3240.JPG"       height="174"       width="232"        transform="rotate(2, 552, 443)"/><rect x="436" y="356" width="232" height="174" ry="0" style="fill:none;stroke:#ffffff;stroke-width:5;" transform="rotate(2, 552, 443)"/>
<image y="211"    x="28"       id="image3063"       xlink:href="file:///home/lukas/Bilder/fichte/IMG_3206.JPG"       height="168"       width="224"        transform="rotate(5, 140, 295)"/><rect x="28" y="211" width="224" height="168" ry="0" style="fill:none;stroke:#ffffff;stroke-width:5;" transform="rotate(5, 140, 295)"/>
<image y="672"    x="44"       id="image3063"       xlink:href="file:///home/lukas/Bilder/fichte/IMG_3179.JPG"       height="167"       width="223"        transform="rotate(-5, 155, 755)"/><rect x="44" y="672" width="223" height="167" ry="0" style="fill:none;stroke:#ffffff;stroke-width:5;" transform="rotate(-5, 155, 755)"/>
<image y="516"    x="38"       id="image3063"       xlink:href="file:///home/lukas/Bilder/fichte/IMG_3263.JPG"       height="170"       width="227"        transform="rotate(-2, 151, 601)"/><rect x="38" y="516" width="227" height="170" ry="0" style="fill:none;stroke:#ffffff;stroke-width:5;" transform="rotate(-2, 151, 601)"/>
<image y="661"    x="235"       id="image3063"       xlink:href="file:///home/lukas/Bilder/fichte/IMG_3242.JPG"       height="175"       width="234"        transform="rotate(-1, 352, 748)"/><rect x="235" y="661" width="234" height="175" ry="0" style="fill:none;stroke:#ffffff;stroke-width:5;" transform="rotate(-1, 352, 748)"/>
  </g>
</svg>
