<?xml version="1.0" encoding="UTF-8" standalone="no"?>
<!-- Created with Inkscape (http://www.inkscape.org/) -->

<svg
   xmlns:dc="http://purl.org/dc/elements/1.1/"
   xmlns:cc="http://creativecommons.org/ns#"
   xmlns:rdf="http://www.w3.org/1999/02/22-rdf-syntax-ns#"
   xmlns:svg="http://www.w3.org/2000/svg"
   xmlns="http://www.w3.org/2000/svg"
   xmlns:xlink="http://www.w3.org/1999/xlink"
   xmlns:sodipodi="http://sodipodi.sourceforge.net/DTD/sodipodi-0.dtd"
   xmlns:inkscape="http://www.inkscape.org/namespaces/inkscape"
   width="1052.3622"
   height="744.09448"
   id="svg3409"
   version="1.1"
   inkscape:version="0.48.2 r9819"
   sodipodi:docname="plakat-hc.pdf">
  <defs
     id="defs3411">
    <linearGradient
       id="linearGradient4859">
      <stop
         style="stop-color:#000000;stop-opacity:0;"
         offset="0"
         id="stop4861" />
      <stop
         style="stop-color:#000000;stop-opacity:1;"
         offset="1"
         id="stop4863" />
    </linearGradient>
    <marker
       style="overflow:visible"
       id="DistanceStart"
       refX="0.0"
       refY="0.0"
       orient="auto"
       inkscape:stockid="DistanceStart">
      <g
         id="g2300">
        <path
           style="fill:none;stroke:#ffffff;stroke-width:1.15;stroke-linecap:square"
           d="M 0,0 L 2,0"
           id="path2306" />
        <path
           style="fill:#000000;fill-rule:evenodd;stroke:none"
           d="M 0,0 L 13,4 L 9,0 13,-4 L 0,0 z "
           id="path2302" />
        <path
           style="fill:none;stroke:#000000;stroke-width:1;stroke-linecap:square"
           d="M 0,-4 L 0,40"
           id="path2304" />
      </g>
    </marker>
    <radialGradient
       inkscape:collect="always"
       xlink:href="#linearGradient4859"
       id="radialGradient4865"
       cx="754.01843"
       cy="83.729851"
       fx="754.01843"
       fy="83.729851"
       r="142.26372"
       gradientTransform="matrix(0.21701931,0.00535274,2.9271473e-4,0.55774108,590.35737,32.992369)"
       gradientUnits="userSpaceOnUse" />
    <radialGradient
       inkscape:collect="always"
       xlink:href="#linearGradient4859"
       id="radialGradient3059"
       gradientUnits="userSpaceOnUse"
       gradientTransform="matrix(0.21701931,0.00535274,2.9271473e-4,0.55774108,590.35737,32.992369)"
       cx="754.01843"
       cy="83.729851"
       fx="754.01843"
       fy="83.729851"
       r="142.26372" />
    <radialGradient
       inkscape:collect="always"
       xlink:href="#linearGradient4859"
       id="radialGradient3067"
       gradientUnits="userSpaceOnUse"
       gradientTransform="matrix(0.21701931,0.00535274,2.9271473e-4,0.55774108,590.35737,32.992369)"
       cx="754.01843"
       cy="83.729851"
       fx="754.01843"
       fy="83.729851"
       r="142.26372" />
    <radialGradient
       inkscape:collect="always"
       xlink:href="#linearGradient4859"
       id="radialGradient3077"
       gradientUnits="userSpaceOnUse"
       gradientTransform="matrix(0.21701931,0.00535274,2.9271473e-4,0.55774108,590.35737,32.992369)"
       cx="754.01843"
       cy="83.729851"
       fx="754.01843"
       fy="83.729851"
       r="142.26372" />
    <radialGradient
       inkscape:collect="always"
       xlink:href="#linearGradient4859"
       id="radialGradient3089"
       gradientUnits="userSpaceOnUse"
       gradientTransform="matrix(0.21701931,0.00535274,2.9271473e-4,0.55774108,590.35737,32.992369)"
       cx="754.01843"
       cy="83.729851"
       fx="754.01843"
       fy="83.729851"
       r="142.26372" />
    <filter
       inkscape:collect="always"
       id="filter4094">
      <feGaussianBlur
         inkscape:collect="always"
         stdDeviation="0.90820988"
         id="feGaussianBlur4096" />
    </filter>
  </defs>
  <sodipodi:namedview
     id="base"
     pagecolor="#ffffff"
     bordercolor="#666666"
     borderopacity="1.0"
     inkscape:pageopacity="0.0"
     inkscape:pageshadow="2"
     inkscape:zoom="0.70710678"
     inkscape:cx="437.74012"
     inkscape:cy="190.19849"
     inkscape:document-units="px"
     inkscape:current-layer="layer1"
     showgrid="false"
     inkscape:window-width="1680"
     inkscape:window-height="1023"
     inkscape:window-x="1680"
     inkscape:window-y="0"
     inkscape:window-maximized="1" />
  <metadata
     id="metadata3414">
    <rdf:RDF>
      <cc:Work
         rdf:about="">
        <dc:format>image/svg+xml</dc:format>
        <dc:type
           rdf:resource="http://purl.org/dc/dcmitype/StillImage" />
        <dc:title></dc:title>
      </cc:Work>
    </rdf:RDF>
  </metadata>
  <g
     inkscape:label="Ebene 1"
     inkscape:groupmode="layer"
     id="layer1"
     transform="translate(0,-308.2677)">
    <path
       sodipodi:type="star"
       style="color:#000000;fill:url(#radialGradient3089);fill-opacity:1;fill-rule:nonzero;stroke:none;stroke-width:0;marker:none;visibility:visible;display:inline;overflow:visible;enable-background:accumulate;opacity:0.5;filter:url(#filter4094)"
       id="path4857"
       sodipodi:sides="43"
       sodipodi:cx="752"
       sodipodi:cy="87.094482"
       sodipodi:r1="142.14429"
       sodipodi:r2="4.2643285"
       sodipodi:arg1="1.4438235"
       sodipodi:arg2="1.5168838"
       inkscape:flatsided="false"
       inkscape:rounded="3.1225023e-17"
       inkscape:randomized="0.012"
       d="M 771.38205,228.54885 750.81459,90.44874 748.72619,230.5497 750.7187,92.316807 728.83817,225.64905 751.96293,90.23614 710.06131,223.08706 748.91413,91.721362 689.23484,214.06764 749.29106,89.634248 672.6731,205.53988 750.73693,89.686609 655.95315,190.97153 749.62772,90.535863 641.35892,174.36827 749.0687,88.694144 628.64227,158.49032 748.11958,87.641796 620.11656,139.42627 746.90016,87.360936 612.69307,121.5967 749.41077,87.191746 611.31415,101.45257 746.49289,88.309267 611.21346,77.764944 748.56689,88.110669 611.72793,57.02937 746.75011,87.24279 616.79374,39.598217 747.12471,86.302437 625.23441,19.700282 747.60273,83.185723 637.33499,0.69419742 748.42348,83.196898 652.21727,-15.078586 747.7407,82.711744 666.92007,-26.11339 750.71319,84.235908 684.70916,-37.358031 751.70895,82.599045 704.17694,-47.393965 750.05254,84.079084 722.74237,-50.590711 751.66472,81.953419 743.43823,-53.491462 751.3892,81.506501 765.14608,-54.094206 751.439,83.172997 785.42112,-51.986583 753.4805,81.621381 805.66497,-44.5672 755.26204,82.672913 823.03942,-36.742464 755.39585,85.268469 841.84525,-24.0644 755.41451,85.023797 857.69808,-10.930108 755.00391,85.096033 867.67236,6.2962028 756.70731,85.90063 879.67578,25.385256 756.34858,84.752307 889.08038,44.17155 755.88924,87.267475 892.48762,62.846973 757.44511,87.4404 895.7409,84.540608 754.71759,88.388777 892.53167,105.27336 755.54064,88.3857 889.1511,127.29203 755.31135,87.887336 881.61721,144.13106 754.60861,88.310945 870.86427,163.17249 754.54069,88.114052 860.91889,178.62211 753.3367,89.924208 844.80105,195.74237 752.86484,91.475756 826.56407,205.93694 754.76882,90.086783 809.88158,218.30418 753.3,89.756302 789.49153,225.1962 753.90457,91.509584 z"
       transform="matrix(4.4126529,0,-1.2225802,1.1614717,-2690.7867,715.8409)" />
    <text
       xml:space="preserve"
       style="font-size:29.5645256px;font-style:normal;font-variant:normal;font-weight:normal;font-stretch:normal;line-height:125%;letter-spacing:0px;word-spacing:0px;fill:#000000;fill-opacity:1;stroke:none;font-family:Nimbus Mono L;-inkscape-font-specification:Nimbus Mono L"
       x="171.36108"
       y="841.15961"
       id="text4204"
       sodipodi:linespacing="125%"><tspan
         sodipodi:role="line"
         id="tspan4206"
         x="171.36108"
         y="841.15961"
         style="font-size:68.98389435px"><tspan
           style="font-size:98.54841614px;font-style:normal;font-variant:normal;font-weight:bold;font-stretch:condensed;font-family:Agency FB;-inkscape-font-specification:Agency FB Bold Condensed"
           id="tspan3013">INST<tspan
   style="font-size:135.5040741px"
   id="tspan3025">ABI</tspan>L</tspan><tspan
           style="font-size:98.54841614px;font-style:normal;font-variant:normal;font-weight:bold;font-stretch:condensed;font-family:Agency FB;-inkscape-font-specification:Agency FB Bold Condensed"
           id="tspan3027">.heroku.com</tspan></tspan></text>
    <text
       xml:space="preserve"
       style="font-size:24px;font-style:normal;font-variant:normal;font-weight:normal;font-stretch:normal;line-height:125%;letter-spacing:0px;word-spacing:0px;fill:#000000;fill-opacity:1;stroke:none;font-family:Nimbus Mono L;-inkscape-font-specification:Nimbus Mono L"
       x="-127.84568"
       y="521.64624"
       id="text4208"
       sodipodi:linespacing="125%"
       transform="matrix(0.95561981,-0.29460276,0.29460276,0.95561981,0,0)"><tspan
         sodipodi:role="line"
         id="tspan4210"
         x="-127.84568"
         y="521.64624"
         style="font-size:100px;font-style:normal;font-variant:normal;font-weight:bold;font-stretch:condensed;font-family:Agency FB;-inkscape-font-specification:Agency FB Bold Condensed">Abimotto?</tspan></text>
    <text
       sodipodi:linespacing="125%"
       id="text4212"
       y="233.62286"
       x="689.0589"
       style="font-size:24px;font-style:normal;font-variant:normal;font-weight:normal;font-stretch:normal;line-height:125%;letter-spacing:0px;word-spacing:0px;fill:#000000;fill-opacity:1;stroke:none;font-family:Nimbus Mono L;-inkscape-font-specification:Nimbus Mono L"
       xml:space="preserve"
       transform="matrix(0.95642383,0.29198194,-0.29198194,0.95642383,0,0)"><tspan
         style="font-size:100px;font-style:normal;font-variant:normal;font-weight:bold;font-stretch:condensed;font-family:Agency FB;-inkscape-font-specification:Agency FB Bold Condensed"
         y="233.62286"
         x="689.0589"
         id="tspan4214"
         sodipodi:role="line">Abizeitung?</tspan></text>
    <path
       sodipodi:type="star"
       style="color:#000000;fill:#000000;fill-opacity:1;stroke:#000000;stroke-width:0;stroke-linecap:butt;stroke-linejoin:miter;stroke-miterlimit:4;stroke-opacity:1;stroke-dasharray:none;stroke-dashoffset:0;marker:none;visibility:visible;display:inline;overflow:visible;enable-background:accumulate"
       id="path4855"
       sodipodi:sides="14"
       sodipodi:cx="140"
       sodipodi:cy="472.09448"
       sodipodi:r1="89.988892"
       sodipodi:r2="71.631157"
       sodipodi:arg1="-0.25845494"
       sodipodi:arg2="-0.034055461"
       inkscape:flatsided="false"
       inkscape:rounded="0"
       inkscape:randomized="0"
       d="m 227,449.09448 -15.41038,20.56104 16.774,19.46456 -22.80537,11.83855 6.66749,24.81493 -25.68348,0.77128 -4.75959,25.25039 -23.47467,-10.44875 -15.24398,20.68472 -16.6164,-19.59928 -22.70911,12.02217 -6.467054,-24.86792 -25.676424,0.97848 4.963172,-25.21117 -23.558207,-10.259 15.41038,-20.56104 -16.773998,-19.46456 22.805374,-11.83854 -6.667493,-24.81493 25.683484,-0.77128 4.759591,-25.2504 23.474665,10.44875 15.24398,-20.68471 16.6164,19.59927 22.70911,-12.02217 6.46705,24.86792 25.67643,-0.97848 -4.96317,25.21117 z"
       transform="translate(-2033,399.2677)" />
    <text
       transform="matrix(1.0215303,-0.02349482,0.05099367,0.97775064,0,0)"
       sodipodi:linespacing="125%"
       id="text3029"
       y="637.09247"
       x="240.89143"
       style="font-size:97.44842529px;font-style:normal;font-variant:normal;font-weight:normal;font-stretch:normal;line-height:125%;letter-spacing:0px;word-spacing:0px;fill:#000000;fill-opacity:1;stroke:none;font-family:Nimbus Mono L;-inkscape-font-specification:Nimbus Mono L"
       xml:space="preserve"><tspan
         style="font-size:97.44842529px;font-style:normal;font-variant:normal;font-weight:bold;font-stretch:condensed;font-family:Agency FB;-inkscape-font-specification:Agency FB Bold Condensed"
         y="637.09247"
         x="240.89143"
         id="tspan3031"
         sodipodi:role="line">Demokratie!!</tspan></text>
  </g>
</svg>
