<?xml version="1.0" encoding="UTF-8" standalone="no"?>
<!-- Created with Inkscape (http://www.inkscape.org/) -->

<svg
   xmlns:dc="http://purl.org/dc/elements/1.1/"
   xmlns:cc="http://creativecommons.org/ns#"
   xmlns:rdf="http://www.w3.org/1999/02/22-rdf-syntax-ns#"
   xmlns:svg="http://www.w3.org/2000/svg"
   xmlns="http://www.w3.org/2000/svg"
   xmlns:sodipodi="http://sodipodi.sourceforge.net/DTD/sodipodi-0.dtd"
   xmlns:inkscape="http://www.inkscape.org/namespaces/inkscape"
   sodipodi:docname="bg2.svg"
   inkscape:version="0.48.3.1 r9886"
   version="1.1"
   id="svg3001"
   height="297mm"
   width="210mm">
  <sodipodi:namedview
     id="base"
     pagecolor="#ffffff"
     bordercolor="#666666"
     borderopacity="1.0"
     inkscape:pageopacity="0.0"
     inkscape:pageshadow="2"
     inkscape:zoom="0.69999999"
     inkscape:cx="258.51108"
     inkscape:cy="498.60217"
     inkscape:document-units="px"
     inkscape:current-layer="layer1"
     showgrid="false"
     inkscape:window-width="1678"
     inkscape:window-height="730"
     inkscape:window-x="0"
     inkscape:window-y="19"
     inkscape:window-maximized="0" />
  <defs
     id="defs3003">
    <linearGradient
       id="linearGradient3782">
      <stop
         id="stop3784"
         offset="0"
         style="stop-color:#d5d2d3;stop-opacity:1;" />
      <stop
         id="stop3786"
         offset="1"
         style="stop-color:#ffffff;stop-opacity:1;" />
    </linearGradient>
  </defs>
  <metadata
     id="metadata3006">
    <rdf:RDF>
      <cc:Work
         rdf:about="">
        <dc:format>image/svg+xml</dc:format>
        <dc:type
           rdf:resource="http://purl.org/dc/dcmitype/StillImage" />
        <dc:title />
      </cc:Work>
    </rdf:RDF>
  </metadata>
  <g
     id="layer1"
     inkscape:groupmode="layer"
     inkscape:label="Ebene 1">
    <rect
       ry="0"
       y="0.94847876"
       x="-745"
       height="1051.7708"
       width="746.93365"
       id="rect3009"
       style="color:#000000;fill:#d5d2d3;fill-opacity:1;fill-rule:evenodd;stroke:none;stroke-width:50;marker:none;visibility:visible;display:inline;overflow:visible;enable-background:accumulate"
       transform="scale(-1,1)" />
    <path
       inkscape:connector-curvature="0"
       id="path50"
       d="m 0,46  45,0  5,-5  38,0  5,5  44,0  5,5  21,0  5,5  38,0  5,5  36,0  5,5  38,0  5,-5  46,0  5,-5  21,0  5,5  33,0  5,-5  43,0  5,5  36,0  5,-5  32,0  5,-5  41,0  5,-5  28,0  5,5  34,0  5,5  50,0  5,-5  24,0  5,-5  41,0  5,-5  35,0  5,5  25,0 "
       style="color:#000000;fill:none;stroke:#ffffff;stroke-width:1;stroke-miterlimit:4;stroke-dasharray:none;marker:none;visibility:visible;display:inline;overflow:visible;enable-background:accumulate" />
    <path
       inkscape:connector-curvature="0"
       id="path60"
       d="m 0,59  47,0  5,-5  50,0  5,5  32,0  5,5  31,0  5,-5  21,0  5,5  39,0  5,-5  48,0  5,5  37,0  5,5  50,0  5,-5  33,0  5,-5  44,0  5,-5  26,0  5,-5  42,0  5,-5  27,0  5,-5  34,0  5,-5  22,0  5,-5  30,0  5,-5  34,0  5,-5  24,0  5,-5  22,0  5,-5  34,0 "
       style="color:#000000;fill:none;stroke:#ffffff;stroke-width:1;stroke-miterlimit:4;stroke-dasharray:none;marker:none;visibility:visible;display:inline;overflow:visible;enable-background:accumulate" />
    <path
       inkscape:connector-curvature="0"
       id="path70"
       d="m 0,65  37,0  5,-5  44,0  5,5  40,0  5,-5  36,0  5,-5  27,0  5,-5  31,0  5,-5  24,0  5,5  40,0  5,-5  20,0  5,5  35,0  5,-5  41,0  5,5  48,0  5,-5  29,0  5,-5  46,0  5,5  43,0  5,5  29,0  5,-5  25,0  5,-5  46,0  5,5  45,0  5,5  35,0  5,-5  40,0 "
       style="color:#000000;fill:none;stroke:#ffffff;stroke-width:1;stroke-miterlimit:4;stroke-dasharray:none;marker:none;visibility:visible;display:inline;overflow:visible;enable-background:accumulate" />
    <path
       inkscape:connector-curvature="0"
       id="path80"
       d="m 0,76  24,0  5,-5  26,0  5,-5  41,0  5,5  44,0  5,5  28,0  5,-5  39,0  5,5  26,0  5,-5  26,0  5,-5  50,0  5,-5  21,0  5,-5  21,0  5,-5  48,0  5,-5  23,0  5,5  46,0  5,-5  35,0  5,5  32,0  5,-5  37,0  5,5  36,0  5,5  36,0  5,5  39,0  5,5  40,0 "
       style="color:#000000;fill:none;stroke:#ffffff;stroke-width:1;stroke-miterlimit:4;stroke-dasharray:none;marker:none;visibility:visible;display:inline;overflow:visible;enable-background:accumulate" />
    <path
       inkscape:connector-curvature="0"
       id="path90"
       d="m 0,93  50,0  5,-5  26,0  5,-5  44,0  5,-5  26,0  5,-5  41,0  5,5  28,0  5,5  38,0  5,-5  24,0  5,-5  26,0  5,5  37,0  5,-5  40,0  5,-5  38,0  5,-5  34,0  5,-5  36,0  5,5  49,0  5,-5  50,0  5,5  37,0  5,5  25,0  5,5  35,0  5,-5  47,0  5,-5  31,0 "
       style="color:#000000;fill:none;stroke:#ffffff;stroke-width:1;stroke-miterlimit:4;stroke-dasharray:none;marker:none;visibility:visible;display:inline;overflow:visible;enable-background:accumulate" />
    <path
       inkscape:connector-curvature="0"
       id="path100"
       d="m 0,103  48,0  5,5  27,0  5,-5  47,0  5,5  43,0  5,-5  33,0  5,5  28,0  5,5  35,0  5,-5  47,0  5,-5  21,0  5,5  43,0  5,5  32,0  5,5  21,0  5,5  40,0  5,-5  21,0  5,5  25,0  5,5  45,0  5,5  33,0  5,-5  41,0  5,5  37,0  5,5  38,0  5,-5  41,0 "
       style="color:#000000;fill:none;stroke:#ffffff;stroke-width:1;stroke-miterlimit:4;stroke-dasharray:none;marker:none;visibility:visible;display:inline;overflow:visible;enable-background:accumulate" />
    <path
       inkscape:connector-curvature="0"
       id="path110"
       d="m 0,114  41,0  5,5  20,0  5,5  23,0  5,5  31,0  5,-5  31,0  5,5  37,0  5,-5  30,0  5,-5  35,0  5,-5  45,0  5,5  22,0  5,5  23,0  5,5  26,0  5,5  46,0  5,5  40,0  5,-5  26,0  5,-5  45,0  5,-5  48,0  5,-5  30,0  5,5  36,0  5,5  38,0  5,-5  40,0 "
       style="color:#000000;fill:none;stroke:#ffffff;stroke-width:1;stroke-miterlimit:4;stroke-dasharray:none;marker:none;visibility:visible;display:inline;overflow:visible;enable-background:accumulate" />
    <path
       inkscape:connector-curvature="0"
       id="path120"
       d="m 0,117  23,0  5,-5  28,0  5,-5  36,0  5,5  48,0  5,-5  43,0  5,5  38,0  5,-5  22,0  5,5  26,0  5,-5  41,0  5,-5  46,0  5,-5  40,0  5,5  38,0  5,-5  30,0  5,5  46,0  5,5  34,0  5,5  46,0  5,5  35,0  5,5  35,0  5,-5  35,0  5,-5  20,0  5,5  21,0 "
       style="color:#000000;fill:none;stroke:#ffffff;stroke-width:1;stroke-miterlimit:4;stroke-dasharray:none;marker:none;visibility:visible;display:inline;overflow:visible;enable-background:accumulate" />
    <path
       inkscape:connector-curvature="0"
       id="path130"
       d="m 0,132  33,0  5,5  20,0  5,-5  39,0  5,-5  44,0  5,5  44,0  5,-5  29,0  5,5  38,0  5,-5  45,0  5,5  47,0  5,-5  47,0  5,-5  38,0  5,5  25,0  5,-5  35,0  5,-5  29,0  5,-5  25,0  5,5  36,0  5,-5  45,0  5,5  24,0  5,-5  50,0  5,-5  29,0  5,-5  37,0 "
       style="color:#000000;fill:none;stroke:#ffffff;stroke-width:1;stroke-miterlimit:4;stroke-dasharray:none;marker:none;visibility:visible;display:inline;overflow:visible;enable-background:accumulate" />
    <path
       inkscape:connector-curvature="0"
       id="path140"
       d="m 0,139  47,0  5,5  49,0  5,-5  46,0  5,5  20,0  5,-5  49,0  5,5  27,0  5,-5  26,0  5,5  27,0  5,-5  28,0  5,5  21,0  5,5  40,0  5,-5  43,0  5,5  40,0  5,5  26,0  5,5  45,0  5,5  48,0  5,-5  21,0  5,-5  43,0  5,-5  28,0  5,-5  21,0  5,5  35,0 "
       style="color:#000000;fill:none;stroke:#ffffff;stroke-width:1;stroke-miterlimit:4;stroke-dasharray:none;marker:none;visibility:visible;display:inline;overflow:visible;enable-background:accumulate" />
    <path
       inkscape:connector-curvature="0"
       id="path150"
       d="m 0,145  45,0  5,-5  30,0  5,5  36,0  5,5  35,0  5,-5  43,0  5,5  26,0  5,-5  25,0  5,5  46,0  5,5  33,0  5,-5  29,0  5,5  43,0  5,5  30,0  5,-5  26,0  5,5  35,0  5,5  50,0  5,5  32,0  5,5  36,0  5,5  48,0  5,-5  27,0  5,-5  48,0  5,-5  37,0 "
       style="color:#000000;fill:none;stroke:#ffffff;stroke-width:1;stroke-miterlimit:4;stroke-dasharray:none;marker:none;visibility:visible;display:inline;overflow:visible;enable-background:accumulate" />
    <path
       inkscape:connector-curvature="0"
       id="path160"
       d="m 0,160  20,0  5,-5  50,0  5,5  28,0  5,-5  22,0  5,5  39,0  5,-5  40,0  5,5  30,0  5,5  24,0  5,5  46,0  5,5  50,0  5,5  44,0  5,5  36,0  5,-5  41,0  5,5  49,0  5,5  46,0  5,-5  27,0  5,5  35,0  5,-5  40,0  5,5  30,0  5,-5  45,0  5,-5  43,0 "
       style="color:#000000;fill:none;stroke:#ffffff;stroke-width:1;stroke-miterlimit:4;stroke-dasharray:none;marker:none;visibility:visible;display:inline;overflow:visible;enable-background:accumulate" />
    <path
       inkscape:connector-curvature="0"
       id="path170"
       d="m 0,165  31,0  5,-5  37,0  5,5  25,0  5,5  27,0  5,-5  29,0  5,-5  38,0  5,5  40,0  5,5  33,0  5,5  28,0  5,5  26,0  5,5  26,0  5,5  49,0  5,-5  37,0  5,5  33,0  5,5  27,0  5,-5  22,0  5,5  41,0  5,-5  23,0  5,-5  25,0  5,5  43,0  5,5  49,0 "
       style="color:#000000;fill:none;stroke:#ffffff;stroke-width:1;stroke-miterlimit:4;stroke-dasharray:none;marker:none;visibility:visible;display:inline;overflow:visible;enable-background:accumulate" />
    <path
       inkscape:connector-curvature="0"
       id="path180"
       d="m 0,185  44,0  5,-5  45,0  5,-5  46,0  5,-5  44,0  5,5  48,0  5,-5  41,0  5,-5  27,0  5,5  37,0  5,5  23,0  5,-5  48,0  5,-5  49,0  5,5  34,0  5,-5  34,0  5,5  41,0  5,-5  49,0  5,-5  20,0  5,5  33,0  5,-5  24,0  5,-5  47,0  5,-5  31,0  5,5  23,0 "
       style="color:#000000;fill:none;stroke:#ffffff;stroke-width:1;stroke-miterlimit:4;stroke-dasharray:none;marker:none;visibility:visible;display:inline;overflow:visible;enable-background:accumulate" />
    <path
       inkscape:connector-curvature="0"
       id="path190"
       d="m 0,185  27,0  5,-5  22,0  5,5  37,0  5,-5  39,0  5,-5  43,0  5,5  49,0  5,5  29,0  5,5  30,0  5,-5  47,0  5,-5  49,0  5,-5  45,0  5,-5  49,0  5,-5  23,0  5,-5  32,0  5,5  21,0  5,5  26,0  5,5  24,0  5,5  43,0  5,-5  34,0  5,-5  22,0  5,-5  24,0 "
       style="color:#000000;fill:none;stroke:#ffffff;stroke-width:1;stroke-miterlimit:4;stroke-dasharray:none;marker:none;visibility:visible;display:inline;overflow:visible;enable-background:accumulate" />
    <path
       inkscape:connector-curvature="0"
       id="path200"
       d="m 0,198  20,0  5,5  25,0  5,5  31,0  5,-5  44,0  5,-5  50,0  5,-5  30,0  5,5  48,0  5,5  33,0  5,-5  28,0  5,5  44,0  5,5  21,0  5,5  50,0  5,-5  24,0  5,5  29,0  5,5  37,0  5,5  41,0  5,-5  28,0  5,-5  50,0  5,-5  24,0  5,5  36,0  5,-5  42,0 "
       style="color:#000000;fill:none;stroke:#ffffff;stroke-width:1;stroke-miterlimit:4;stroke-dasharray:none;marker:none;visibility:visible;display:inline;overflow:visible;enable-background:accumulate" />
    <path
       inkscape:connector-curvature="0"
       id="path210"
       d="m 0,213  20,0  5,5  28,0  5,5  32,0  5,5  41,0  5,-5  33,0  5,5  36,0  5,-5  23,0  5,5  32,0  5,5  36,0  5,5  45,0  5,-5  33,0  5,-5  37,0  5,-5  41,0  5,-5  25,0  5,5  21,0  5,-5  25,0  5,-5  38,0  5,-5  32,0  5,5  21,0  5,-5  25,0  5,-5  36,0 "
       style="color:#000000;fill:none;stroke:#ffffff;stroke-width:1;stroke-miterlimit:4;stroke-dasharray:none;marker:none;visibility:visible;display:inline;overflow:visible;enable-background:accumulate" />
    <path
       inkscape:connector-curvature="0"
       id="path220"
       d="m 0,216  30,0  5,5  36,0  5,5  33,0  5,5  28,0  5,5  23,0  5,5  34,0  5,5  35,0  5,-5  39,0  5,-5  43,0  5,5  28,0  5,5  21,0  5,5  36,0  5,-5  29,0  5,-5  47,0  5,-5  38,0  5,5  21,0  5,-5  39,0  5,-5  36,0  5,5  34,0  5,-5  49,0  5,5  27,0 "
       style="color:#000000;fill:none;stroke:#ffffff;stroke-width:1;stroke-miterlimit:4;stroke-dasharray:none;marker:none;visibility:visible;display:inline;overflow:visible;enable-background:accumulate" />
    <path
       inkscape:connector-curvature="0"
       id="path230"
       d="m 0,225  40,0  5,5  43,0  5,5  28,0  5,-5  36,0  5,5  34,0  5,-5  43,0  5,-5  26,0  5,-5  45,0  5,-5  38,0  5,-5  25,0  5,5  38,0  5,-5  24,0  5,5  46,0  5,-5  21,0  5,5  50,0  5,-5  34,0  5,-5  31,0  5,-5  47,0  5,5  21,0  5,5  35,0  5,5  50,0 "
       style="color:#000000;fill:none;stroke:#ffffff;stroke-width:1;stroke-miterlimit:4;stroke-dasharray:none;marker:none;visibility:visible;display:inline;overflow:visible;enable-background:accumulate" />
    <path
       inkscape:connector-curvature="0"
       id="path240"
       d="m 0,240  43,0  5,-5  28,0  5,5  28,0  5,-5  38,0  5,5  33,0  5,-5  45,0  5,5  44,0  5,5  30,0  5,-5  21,0  5,5  47,0  5,5  33,0  5,5  38,0  5,-5  46,0  5,-5  25,0  5,-5  44,0  5,5  23,0  5,5  44,0  5,-5  27,0  5,-5  46,0  5,5  48,0  5,5  41,0 "
       style="color:#000000;fill:none;stroke:#ffffff;stroke-width:1;stroke-miterlimit:4;stroke-dasharray:none;marker:none;visibility:visible;display:inline;overflow:visible;enable-background:accumulate" />
    <path
       inkscape:connector-curvature="0"
       id="path250"
       d="m 0,251  47,0  5,5  37,0  5,-5  46,0  5,-5  33,0  5,5  29,0  5,-5  29,0  5,5  30,0  5,5  37,0  5,-5  21,0  5,5  39,0  5,-5  46,0  5,5  41,0  5,-5  21,0  5,-5  22,0  5,5  25,0  5,5  39,0  5,5  38,0  5,-5  42,0  5,5  35,0  5,5  28,0  5,-5  31,0 "
       style="color:#000000;fill:none;stroke:#ffffff;stroke-width:1;stroke-miterlimit:4;stroke-dasharray:none;marker:none;visibility:visible;display:inline;overflow:visible;enable-background:accumulate" />
    <path
       inkscape:connector-curvature="0"
       id="path260"
       d="m 0,258  35,0  5,-5  47,0  5,5  33,0  5,-5  35,0  5,5  48,0  5,-5  35,0  5,-5  32,0  5,5  34,0  5,-5  30,0  5,5  25,0  5,5  21,0  5,5  48,0  5,5  28,0  5,5  42,0  5,-5  40,0  5,5  29,0  5,5  45,0  5,-5  50,0  5,-5  32,0  5,5  35,0  5,-5  40,0 "
       style="color:#000000;fill:none;stroke:#ffffff;stroke-width:1;stroke-miterlimit:4;stroke-dasharray:none;marker:none;visibility:visible;display:inline;overflow:visible;enable-background:accumulate" />
    <path
       inkscape:connector-curvature="0"
       id="path270"
       d="m 0,275  48,0  5,-5  42,0  5,5  20,0  5,5  21,0  5,5  31,0  5,5  30,0  5,-5  22,0  5,5  40,0  5,-5  29,0  5,-5  50,0  5,-5  40,0  5,5  24,0  5,5  49,0  5,5  44,0  5,5  28,0  5,-5  23,0  5,-5  50,0  5,5  44,0  5,5  32,0  5,-5  29,0  5,-5  43,0 "
       style="color:#000000;fill:none;stroke:#ffffff;stroke-width:1;stroke-miterlimit:4;stroke-dasharray:none;marker:none;visibility:visible;display:inline;overflow:visible;enable-background:accumulate" />
    <path
       inkscape:connector-curvature="0"
       id="path280"
       d="m 0,279  26,0  5,5  32,0  5,-5  42,0  5,-5  25,0  5,5  33,0  5,5  44,0  5,5  32,0  5,-5  26,0  5,-5  46,0  5,5  41,0  5,-5  44,0  5,-5  47,0  5,5  44,0  5,-5  47,0  5,5  48,0  5,5  33,0  5,5  47,0  5,5  45,0  5,-5  37,0  5,5  47,0  5,5  43,0 "
       style="color:#000000;fill:none;stroke:#ffffff;stroke-width:1;stroke-miterlimit:4;stroke-dasharray:none;marker:none;visibility:visible;display:inline;overflow:visible;enable-background:accumulate" />
    <path
       inkscape:connector-curvature="0"
       id="path290"
       d="m 0,287  24,0  5,5  49,0  5,-5  22,0  5,5  43,0  5,5  37,0  5,-5  31,0  5,5  50,0  5,5  42,0  5,5  25,0  5,-5  31,0  5,5  25,0  5,5  20,0  5,5  39,0  5,-5  36,0  5,5  22,0  5,-5  48,0  5,-5  47,0  5,5  34,0  5,-5  40,0  5,5  41,0  5,5  21,0 "
       style="color:#000000;fill:none;stroke:#ffffff;stroke-width:1;stroke-miterlimit:4;stroke-dasharray:none;marker:none;visibility:visible;display:inline;overflow:visible;enable-background:accumulate" />
    <path
       inkscape:connector-curvature="0"
       id="path300"
       d="m 0,302  45,0  5,-5  47,0  5,5  37,0  5,5  45,0  5,-5  35,0  5,-5  26,0  5,5  27,0  5,-5  23,0  5,5  20,0  5,-5  21,0  5,-5  50,0  5,5  20,0  5,5  35,0  5,-5  26,0  5,5  35,0  5,5  48,0  5,-5  36,0  5,5  40,0  5,5  28,0  5,-5  27,0  5,5  41,0 "
       style="color:#000000;fill:none;stroke:#ffffff;stroke-width:1;stroke-miterlimit:4;stroke-dasharray:none;marker:none;visibility:visible;display:inline;overflow:visible;enable-background:accumulate" />
    <path
       inkscape:connector-curvature="0"
       id="path310"
       d="m 0,312  47,0  5,5  40,0  5,-5  38,0  5,5  20,0  5,5  33,0  5,5  25,0  5,-5  41,0  5,5  35,0  5,5  29,0  5,5  28,0  5,5  39,0  5,5  41,0  5,-5  47,0  5,-5  32,0  5,-5  43,0  5,5  38,0  5,5  25,0  5,-5  38,0  5,-5  21,0  5,-5  41,0  5,5  47,0 "
       style="color:#000000;fill:none;stroke:#ffffff;stroke-width:1;stroke-miterlimit:4;stroke-dasharray:none;marker:none;visibility:visible;display:inline;overflow:visible;enable-background:accumulate" />
    <path
       inkscape:connector-curvature="0"
       id="path320"
       d="m 0,317  35,0  5,5  20,0  5,-5  33,0  5,5  43,0  5,-5  45,0  5,5  32,0  5,-5  24,0  5,5  44,0  5,-5  31,0  5,-5  47,0  5,-5  41,0  5,5  38,0  5,5  38,0  5,-5  27,0  5,5  42,0  5,5  31,0  5,-5  30,0  5,5  32,0  5,-5  48,0  5,5  38,0  5,5  45,0 "
       style="color:#000000;fill:none;stroke:#ffffff;stroke-width:1;stroke-miterlimit:4;stroke-dasharray:none;marker:none;visibility:visible;display:inline;overflow:visible;enable-background:accumulate" />
    <path
       inkscape:connector-curvature="0"
       id="path330"
       d="m 0,327  48,0  5,-5  34,0  5,5  44,0  5,-5  34,0  5,-5  40,0  5,5  30,0  5,5  24,0  5,-5  30,0  5,-5  45,0  5,-5  27,0  5,5  29,0  5,-5  32,0  5,-5  31,0  5,-5  34,0  5,-5  39,0  5,5  30,0  5,-5  34,0  5,-5  38,0  5,-5  38,0  5,-5  43,0  5,5  27,0 "
       style="color:#000000;fill:none;stroke:#ffffff;stroke-width:1;stroke-miterlimit:4;stroke-dasharray:none;marker:none;visibility:visible;display:inline;overflow:visible;enable-background:accumulate" />
    <path
       inkscape:connector-curvature="0"
       id="path340"
       d="m 0,343  38,0  5,5  47,0  5,-5  34,0  5,5  47,0  5,-5  22,0  5,-5  41,0  5,-5  31,0  5,-5  37,0  5,5  42,0  5,5  37,0  5,5  43,0  5,5  41,0  5,5  48,0  5,5  32,0  5,-5  31,0  5,-5  25,0  5,-5  38,0  5,-5  33,0  5,-5  21,0  5,-5  44,0  5,-5  46,0 "
       style="color:#000000;fill:none;stroke:#ffffff;stroke-width:1;stroke-miterlimit:4;stroke-dasharray:none;marker:none;visibility:visible;display:inline;overflow:visible;enable-background:accumulate" />
    <path
       inkscape:connector-curvature="0"
       id="path350"
       d="m 0,350  45,0  5,-5  33,0  5,-5  48,0  5,5  28,0  5,-5  37,0  5,5  33,0  5,-5  37,0  5,-5  42,0  5,5  36,0  5,5  45,0  5,5  42,0  5,-5  42,0  5,5  30,0  5,-5  35,0  5,5  45,0  5,-5  44,0  5,-5  34,0  5,-5  36,0  5,5  23,0  5,5  34,0  5,5  23,0 "
       style="color:#000000;fill:none;stroke:#ffffff;stroke-width:1;stroke-miterlimit:4;stroke-dasharray:none;marker:none;visibility:visible;display:inline;overflow:visible;enable-background:accumulate" />
    <path
       inkscape:connector-curvature="0"
       id="path360"
       d="m 0,361  49,0  5,5  46,0  5,-5  39,0  5,5  47,0  5,-5  31,0  5,-5  23,0  5,5  41,0  5,-5  36,0  5,5  25,0  5,5  23,0  5,-5  35,0  5,5  35,0  5,-5  20,0  5,5  47,0  5,-5  41,0  5,-5  35,0  5,-5  26,0  5,5  35,0  5,-5  25,0  5,-5  24,0  5,-5  45,0 "
       style="color:#000000;fill:none;stroke:#ffffff;stroke-width:1;stroke-miterlimit:4;stroke-dasharray:none;marker:none;visibility:visible;display:inline;overflow:visible;enable-background:accumulate" />
    <path
       inkscape:connector-curvature="0"
       id="path370"
       d="m 0,373  40,0  5,-5  29,0  5,-5  45,0  5,-5  50,0  5,-5  20,0  5,-5  32,0  5,-5  43,0  5,-5  34,0  5,5  50,0  5,5  22,0  5,5  40,0  5,5  28,0  5,-5  26,0  5,5  36,0  5,5  40,0  5,5  39,0  5,5  48,0  5,5  30,0  5,5  49,0  5,5  43,0  5,5  40,0 "
       style="color:#000000;fill:none;stroke:#ffffff;stroke-width:1;stroke-miterlimit:4;stroke-dasharray:none;marker:none;visibility:visible;display:inline;overflow:visible;enable-background:accumulate" />
    <path
       inkscape:connector-curvature="0"
       id="path380"
       d="m 0,381  43,0  5,-5  47,0  5,5  33,0  5,5  49,0  5,-5  48,0  5,-5  31,0  5,5  37,0  5,5  24,0  5,-5  47,0  5,-5  36,0  5,-5  29,0  5,5  44,0  5,5  29,0  5,-5  20,0  5,-5  43,0  5,-5  27,0  5,5  42,0  5,5  48,0  5,-5  25,0  5,5  31,0  5,5  22,0 "
       style="color:#000000;fill:none;stroke:#ffffff;stroke-width:1;stroke-miterlimit:4;stroke-dasharray:none;marker:none;visibility:visible;display:inline;overflow:visible;enable-background:accumulate" />
    <path
       inkscape:connector-curvature="0"
       id="path390"
       d="m 0,387  39,0  5,-5  27,0  5,5  22,0  5,-5  32,0  5,5  45,0  5,5  44,0  5,5  41,0  5,-5  23,0  5,-5  39,0  5,5  22,0  5,-5  20,0  5,5  34,0  5,-5  31,0  5,-5  25,0  5,-5  22,0  5,5  46,0  5,-5  38,0  5,-5  28,0  5,-5  36,0  5,5  32,0  5,-5  32,0 "
       style="color:#000000;fill:none;stroke:#ffffff;stroke-width:1;stroke-miterlimit:4;stroke-dasharray:none;marker:none;visibility:visible;display:inline;overflow:visible;enable-background:accumulate" />
    <path
       inkscape:connector-curvature="0"
       id="path400"
       d="m 0,405  28,0  5,-5  50,0  5,5  50,0  5,-5  47,0  5,-5  50,0  5,-5  29,0  5,5  38,0  5,5  47,0  5,5  24,0  5,-5  36,0  5,-5  21,0  5,-5  48,0  5,-5  34,0  5,-5  28,0  5,5  27,0  5,5  36,0  5,5  44,0  5,-5  37,0  5,-5  39,0  5,5  37,0  5,5  50,0 "
       style="color:#000000;fill:none;stroke:#ffffff;stroke-width:1;stroke-miterlimit:4;stroke-dasharray:none;marker:none;visibility:visible;display:inline;overflow:visible;enable-background:accumulate" />
    <path
       inkscape:connector-curvature="0"
       id="path410"
       d="m 0,413  48,0  5,-5  20,0  5,5  40,0  5,-5  35,0  5,-5  46,0  5,5  38,0  5,5  50,0  5,-5  47,0  5,-5  22,0  5,5  47,0  5,5  36,0  5,-5  32,0  5,5  28,0  5,5  49,0  5,-5  25,0  5,-5  27,0  5,5  36,0  5,5  25,0  5,-5  40,0  5,-5  27,0  5,5  27,0 "
       style="color:#000000;fill:none;stroke:#ffffff;stroke-width:1;stroke-miterlimit:4;stroke-dasharray:none;marker:none;visibility:visible;display:inline;overflow:visible;enable-background:accumulate" />
    <path
       inkscape:connector-curvature="0"
       id="path420"
       d="m 0,419  47,0  5,5  32,0  5,5  29,0  5,-5  26,0  5,-5  21,0  5,-5  50,0  5,5  40,0  5,-5  39,0  5,5  37,0  5,5  47,0  5,5  46,0  5,5  46,0  5,-5  28,0  5,5  23,0  5,-5  21,0  5,-5  46,0  5,-5  49,0  5,5  30,0  5,-5  32,0  5,-5  41,0  5,5  35,0 "
       style="color:#000000;fill:none;stroke:#ffffff;stroke-width:1;stroke-miterlimit:4;stroke-dasharray:none;marker:none;visibility:visible;display:inline;overflow:visible;enable-background:accumulate" />
    <path
       inkscape:connector-curvature="0"
       id="path430"
       d="m 0,429  29,0  5,5  22,0  5,-5  21,0  5,-5  32,0  5,5  21,0  5,5  50,0  5,-5  29,0  5,5  33,0  5,5  48,0  5,5  40,0  5,5  27,0  5,-5  40,0  5,5  41,0  5,5  48,0  5,-5  23,0  5,-5  20,0  5,5  46,0  5,5  49,0  5,5  32,0  5,5  22,0  5,5  43,0 "
       style="color:#000000;fill:none;stroke:#ffffff;stroke-width:1;stroke-miterlimit:4;stroke-dasharray:none;marker:none;visibility:visible;display:inline;overflow:visible;enable-background:accumulate" />
    <path
       inkscape:connector-curvature="0"
       id="path440"
       d="m 0,437  49,0  5,-5  23,0  5,5  35,0  5,5  50,0  5,-5  20,0  5,-5  27,0  5,-5  32,0  5,5  49,0  5,-5  35,0  5,-5  35,0  5,5  42,0  5,-5  30,0  5,5  26,0  5,5  27,0  5,5  27,0  5,-5  23,0  5,5  21,0  5,-5  26,0  5,5  36,0  5,5  20,0  5,-5  35,0 "
       style="color:#000000;fill:none;stroke:#ffffff;stroke-width:1;stroke-miterlimit:4;stroke-dasharray:none;marker:none;visibility:visible;display:inline;overflow:visible;enable-background:accumulate" />
    <path
       inkscape:connector-curvature="0"
       id="path450"
       d="m 0,446  32,0  5,-5  49,0  5,-5  23,0  5,5  26,0  5,-5  21,0  5,-5  40,0  5,-5  39,0  5,-5  49,0  5,-5  32,0  5,-5  31,0  5,5  38,0  5,5  36,0  5,-5  31,0  5,5  44,0  5,5  28,0  5,-5  43,0  5,5  32,0  5,5  22,0  5,-5  29,0  5,-5  21,0  5,5  46,0 "
       style="color:#000000;fill:none;stroke:#ffffff;stroke-width:1;stroke-miterlimit:4;stroke-dasharray:none;marker:none;visibility:visible;display:inline;overflow:visible;enable-background:accumulate" />
    <path
       inkscape:connector-curvature="0"
       id="path460"
       d="m 0,464  36,0  5,5  35,0  5,-5  41,0  5,5  39,0  5,-5  41,0  5,-5  20,0  5,5  48,0  5,-5  21,0  5,5  43,0  5,5  28,0  5,-5  40,0  5,5  24,0  5,-5  27,0  5,-5  25,0  5,5  43,0  5,-5  32,0  5,5  24,0  5,5  32,0  5,5  20,0  5,-5  30,0  5,5  29,0 "
       style="color:#000000;fill:none;stroke:#ffffff;stroke-width:1;stroke-miterlimit:4;stroke-dasharray:none;marker:none;visibility:visible;display:inline;overflow:visible;enable-background:accumulate" />
    <path
       inkscape:connector-curvature="0"
       id="path470"
       d="m 0,471  43,0  5,5  35,0  5,-5  32,0  5,-5  30,0  5,-5  25,0  5,5  41,0  5,5  36,0  5,5  40,0  5,-5  48,0  5,-5  29,0  5,-5  20,0  5,5  50,0  5,5  44,0  5,5  37,0  5,5  47,0  5,5  26,0  5,-5  23,0  5,-5  43,0  5,-5  27,0  5,5  32,0  5,5  38,0 "
       style="color:#000000;fill:none;stroke:#ffffff;stroke-width:1;stroke-miterlimit:4;stroke-dasharray:none;marker:none;visibility:visible;display:inline;overflow:visible;enable-background:accumulate" />
    <path
       inkscape:connector-curvature="0"
       id="path480"
       d="m 0,483  45,0  5,-5  37,0  5,-5  34,0  5,-5  34,0  5,5  23,0  5,-5  29,0  5,5  50,0  5,-5  48,0  5,5  42,0  5,5  23,0  5,5  49,0  5,5  46,0  5,5  28,0  5,-5  49,0  5,-5  23,0  5,5  29,0  5,-5  41,0  5,-5  30,0  5,-5  28,0  5,-5  42,0  5,5  27,0 "
       style="color:#000000;fill:none;stroke:#ffffff;stroke-width:1;stroke-miterlimit:4;stroke-dasharray:none;marker:none;visibility:visible;display:inline;overflow:visible;enable-background:accumulate" />
    <path
       inkscape:connector-curvature="0"
       id="path490"
       d="m 0,487  35,0  5,5  32,0  5,5  30,0  5,5  30,0  5,-5  36,0  5,-5  44,0  5,-5  23,0  5,5  31,0  5,-5  21,0  5,5  20,0  5,5  36,0  5,-5  46,0  5,5  35,0  5,-5  30,0  5,5  29,0  5,-5  43,0  5,-5  37,0  5,-5  38,0  5,5  28,0  5,5  29,0  5,5  29,0 "
       style="color:#000000;fill:none;stroke:#ffffff;stroke-width:1;stroke-miterlimit:4;stroke-dasharray:none;marker:none;visibility:visible;display:inline;overflow:visible;enable-background:accumulate" />
    <path
       inkscape:connector-curvature="0"
       id="path500"
       d="m 0,499  48,0  5,5  41,0  5,-5  47,0  5,5  26,0  5,-5  32,0  5,-5  22,0  5,-5  44,0  5,-5  34,0  5,-5  46,0  5,5  44,0  5,5  35,0  5,-5  22,0  5,5  49,0  5,5  43,0  5,5  43,0  5,5  35,0  5,-5  48,0  5,-5  40,0  5,5  20,0  5,-5  23,0  5,5  24,0 "
       style="color:#000000;fill:none;stroke:#ffffff;stroke-width:1;stroke-miterlimit:4;stroke-dasharray:none;marker:none;visibility:visible;display:inline;overflow:visible;enable-background:accumulate" />
    <path
       inkscape:connector-curvature="0"
       id="path510"
       d="m 0,507  27,0  5,-5  30,0  5,5  40,0  5,-5  49,0  5,-5  32,0  5,5  41,0  5,-5  27,0  5,5  24,0  5,-5  31,0  5,5  38,0  5,5  23,0  5,5  41,0  5,5  34,0  5,5  24,0  5,-5  25,0  5,5  27,0  5,-5  27,0  5,-5  26,0  5,-5  25,0  5,5  50,0  5,5  45,0 "
       style="color:#000000;fill:none;stroke:#ffffff;stroke-width:1;stroke-miterlimit:4;stroke-dasharray:none;marker:none;visibility:visible;display:inline;overflow:visible;enable-background:accumulate" />
    <path
       inkscape:connector-curvature="0"
       id="path520"
       d="m 0,517  25,0  5,-5  40,0  5,5  26,0  5,5  26,0  5,5  35,0  5,5  39,0  5,5  46,0  5,5  21,0  5,-5  28,0  5,-5  37,0  5,5  28,0  5,5  44,0  5,5  49,0  5,5  40,0  5,-5  25,0  5,-5  29,0  5,5  40,0  5,-5  49,0  5,5  42,0  5,-5  28,0  5,-5  22,0 "
       style="color:#000000;fill:none;stroke:#ffffff;stroke-width:1;stroke-miterlimit:4;stroke-dasharray:none;marker:none;visibility:visible;display:inline;overflow:visible;enable-background:accumulate" />
    <path
       inkscape:connector-curvature="0"
       id="path530"
       d="m 0,532  22,0  5,-5  33,0  5,5  43,0  5,5  43,0  5,5  26,0  5,5  26,0  5,5  21,0  5,5  36,0  5,-5  24,0  5,-5  41,0  5,5  49,0  5,5  27,0  5,-5  43,0  5,-5  27,0  5,5  47,0  5,-5  29,0  5,5  26,0  5,-5  40,0  5,5  23,0  5,-5  28,0  5,5  43,0 "
       style="color:#000000;fill:none;stroke:#ffffff;stroke-width:1;stroke-miterlimit:4;stroke-dasharray:none;marker:none;visibility:visible;display:inline;overflow:visible;enable-background:accumulate" />
    <path
       inkscape:connector-curvature="0"
       id="path540"
       d="m 0,536  42,0  5,-5  38,0  5,5  30,0  5,5  38,0  5,5  45,0  5,5  34,0  5,5  39,0  5,-5  46,0  5,-5  29,0  5,-5  37,0  5,5  37,0  5,5  50,0  5,-5  28,0  5,-5  34,0  5,5  36,0  5,5  47,0  5,5  43,0  5,5  31,0  5,-5  46,0  5,-5  36,0  5,-5  31,0 "
       style="color:#000000;fill:none;stroke:#ffffff;stroke-width:1;stroke-miterlimit:4;stroke-dasharray:none;marker:none;visibility:visible;display:inline;overflow:visible;enable-background:accumulate" />
    <path
       inkscape:connector-curvature="0"
       id="path550"
       d="m 0,548  43,0  5,-5  41,0  5,5  29,0  5,-5  44,0  5,5  24,0  5,-5  41,0  5,5  40,0  5,-5  32,0  5,5  48,0  5,5  29,0  5,-5  20,0  5,-5  28,0  5,-5  29,0  5,-5  45,0  5,5  20,0  5,-5  46,0  5,-5  25,0  5,5  48,0  5,-5  44,0  5,-5  40,0  5,-5  33,0 "
       style="color:#000000;fill:none;stroke:#ffffff;stroke-width:1;stroke-miterlimit:4;stroke-dasharray:none;marker:none;visibility:visible;display:inline;overflow:visible;enable-background:accumulate" />
    <path
       inkscape:connector-curvature="0"
       id="path560"
       d="m 0,556  45,0  5,-5  41,0  5,5  35,0  5,5  39,0  5,5  41,0  5,5  37,0  5,5  50,0  5,5  42,0  5,5  48,0  5,5  27,0  5,5  29,0  5,-5  48,0  5,-5  44,0  5,5  26,0  5,5  30,0  5,-5  45,0  5,5  31,0  5,5  34,0  5,-5  46,0  5,5  22,0  5,5  47,0 "
       style="color:#000000;fill:none;stroke:#ffffff;stroke-width:1;stroke-miterlimit:4;stroke-dasharray:none;marker:none;visibility:visible;display:inline;overflow:visible;enable-background:accumulate" />
    <path
       inkscape:connector-curvature="0"
       id="path570"
       d="m 0,568  38,0  5,5  41,0  5,-5  44,0  5,5  21,0  5,-5  42,0  5,-5  33,0  5,5  38,0  5,5  21,0  5,5  41,0  5,5  33,0  5,-5  25,0  5,5  50,0  5,-5  27,0  5,-5  39,0  5,5  20,0  5,-5  32,0  5,-5  50,0  5,-5  35,0  5,-5  21,0  5,-5  45,0  5,5  31,0 "
       style="color:#000000;fill:none;stroke:#ffffff;stroke-width:1;stroke-miterlimit:4;stroke-dasharray:none;marker:none;visibility:visible;display:inline;overflow:visible;enable-background:accumulate" />
    <path
       inkscape:connector-curvature="0"
       id="path580"
       d="m 0,581  32,0  5,-5  32,0  5,5  45,0  5,5  21,0  5,-5  48,0  5,-5  46,0  5,-5  26,0  5,-5  28,0  5,-5  25,0  5,5  21,0  5,-5  37,0  5,-5  20,0  5,5  40,0  5,5  41,0  5,-5  22,0  5,-5  22,0  5,-5  23,0  5,5  39,0  5,-5  45,0  5,5  39,0  5,-5  36,0 "
       style="color:#000000;fill:none;stroke:#ffffff;stroke-width:1;stroke-miterlimit:4;stroke-dasharray:none;marker:none;visibility:visible;display:inline;overflow:visible;enable-background:accumulate" />
    <path
       inkscape:connector-curvature="0"
       id="path590"
       d="m 0,590  29,0  5,5  34,0  5,5  40,0  5,-5  23,0  5,-5  45,0  5,-5  23,0  5,5  30,0  5,5  47,0  5,-5  34,0  5,5  44,0  5,5  33,0  5,5  36,0  5,-5  48,0  5,5  46,0  5,5  50,0  5,5  41,0  5,5  37,0  5,5  42,0  5,-5  23,0  5,5  46,0  5,5  42,0 "
       style="color:#000000;fill:none;stroke:#ffffff;stroke-width:1;stroke-miterlimit:4;stroke-dasharray:none;marker:none;visibility:visible;display:inline;overflow:visible;enable-background:accumulate" />
    <path
       inkscape:connector-curvature="0"
       id="path600"
       d="m 0,595  31,0  5,-5  27,0  5,5  20,0  5,-5  33,0  5,5  48,0  5,-5  41,0  5,-5  26,0  5,-5  36,0  5,5  30,0  5,-5  31,0  5,5  20,0  5,-5  45,0  5,-5  47,0  5,-5  44,0  5,-5  30,0  5,5  35,0  5,-5  24,0  5,-5  24,0  5,-5  27,0  5,5  39,0  5,5  33,0 "
       style="color:#000000;fill:none;stroke:#ffffff;stroke-width:1;stroke-miterlimit:4;stroke-dasharray:none;marker:none;visibility:visible;display:inline;overflow:visible;enable-background:accumulate" />
    <path
       inkscape:connector-curvature="0"
       id="path610"
       d="m 0,607  26,0  5,5  35,0  5,-5  30,0  5,5  48,0  5,5  50,0  5,-5  32,0  5,5  50,0  5,5  24,0  5,-5  48,0  5,-5  20,0  5,-5  20,0  5,5  29,0  5,5  32,0  5,-5  24,0  5,-5  39,0  5,5  31,0  5,-5  33,0  5,5  22,0  5,5  44,0  5,-5  22,0  5,-5  33,0 "
       style="color:#000000;fill:none;stroke:#ffffff;stroke-width:1;stroke-miterlimit:4;stroke-dasharray:none;marker:none;visibility:visible;display:inline;overflow:visible;enable-background:accumulate" />
    <path
       inkscape:connector-curvature="0"
       id="path620"
       d="m 0,622  40,0  5,-5  34,0  5,-5  21,0  5,-5  30,0  5,-5  36,0  5,5  50,0  5,5  38,0  5,-5  31,0  5,-5  38,0  5,5  32,0  5,-5  42,0  5,5  43,0  5,5  43,0  5,-5  35,0  5,5  50,0  5,-5  39,0  5,5  24,0  5,-5  47,0  5,-5  23,0  5,5  45,0  5,-5  32,0 "
       style="color:#000000;fill:none;stroke:#ffffff;stroke-width:1;stroke-miterlimit:4;stroke-dasharray:none;marker:none;visibility:visible;display:inline;overflow:visible;enable-background:accumulate" />
    <path
       inkscape:connector-curvature="0"
       id="path630"
       d="m 0,630  36,0  5,-5  21,0  5,5  34,0  5,-5  32,0  5,5  37,0  5,-5  21,0  5,-5  34,0  5,-5  36,0  5,5  33,0  5,5  47,0  5,-5  28,0  5,-5  41,0  5,5  20,0  5,5  28,0  5,5  46,0  5,-5  48,0  5,-5  39,0  5,-5  38,0  5,-5  28,0  5,5  37,0  5,-5  25,0 "
       style="color:#000000;fill:none;stroke:#ffffff;stroke-width:1;stroke-miterlimit:4;stroke-dasharray:none;marker:none;visibility:visible;display:inline;overflow:visible;enable-background:accumulate" />
    <path
       inkscape:connector-curvature="0"
       id="path640"
       d="m 0,643  37,0  5,-5  31,0  5,-5  22,0  5,5  35,0  5,5  22,0  5,5  32,0  5,-5  30,0  5,5  38,0  5,5  35,0  5,5  36,0  5,5  30,0  5,5  31,0  5,5  38,0  5,-5  41,0  5,5  42,0  5,5  37,0  5,5  50,0  5,-5  42,0  5,-5  38,0  5,5  41,0  5,5  36,0 "
       style="color:#000000;fill:none;stroke:#ffffff;stroke-width:1;stroke-miterlimit:4;stroke-dasharray:none;marker:none;visibility:visible;display:inline;overflow:visible;enable-background:accumulate" />
    <path
       inkscape:connector-curvature="0"
       id="path650"
       d="m 0,649  20,0  5,5  23,0  5,-5  21,0  5,-5  20,0  5,-5  30,0  5,-5  45,0  5,5  43,0  5,5  35,0  5,5  28,0  5,5  25,0  5,5  43,0  5,5  36,0  5,-5  44,0  5,-5  40,0  5,5  41,0  5,5  43,0  5,-5  46,0  5,-5  30,0  5,5  45,0  5,-5  50,0  5,5  39,0 "
       style="color:#000000;fill:none;stroke:#ffffff;stroke-width:1;stroke-miterlimit:4;stroke-dasharray:none;marker:none;visibility:visible;display:inline;overflow:visible;enable-background:accumulate" />
    <path
       inkscape:connector-curvature="0"
       id="path660"
       d="m 0,661  20,0  5,5  49,0  5,-5  22,0  5,-5  22,0  5,-5  40,0  5,5  42,0  5,5  35,0  5,-5  50,0  5,5  41,0  5,-5  29,0  5,5  31,0  5,5  49,0  5,-5  29,0  5,-5  25,0  5,-5  30,0  5,5  50,0  5,-5  27,0  5,5  39,0  5,5  42,0  5,-5  25,0  5,5  42,0 "
       style="color:#000000;fill:none;stroke:#ffffff;stroke-width:1;stroke-miterlimit:4;stroke-dasharray:none;marker:none;visibility:visible;display:inline;overflow:visible;enable-background:accumulate" />
    <path
       inkscape:connector-curvature="0"
       id="path670"
       d="m 0,675  37,0  5,5  27,0  5,-5  36,0  5,5  34,0  5,-5  30,0  5,-5  40,0  5,5  49,0  5,-5  29,0  5,-5  40,0  5,5  47,0  5,-5  45,0  5,5  48,0  5,-5  46,0  5,-5  39,0  5,5  43,0  5,5  40,0  5,5  26,0  5,-5  48,0  5,-5  38,0  5,5  45,0  5,5  22,0 "
       style="color:#000000;fill:none;stroke:#ffffff;stroke-width:1;stroke-miterlimit:4;stroke-dasharray:none;marker:none;visibility:visible;display:inline;overflow:visible;enable-background:accumulate" />
    <path
       inkscape:connector-curvature="0"
       id="path680"
       d="m 0,677  41,0  5,5  25,0  5,5  27,0  5,5  49,0  5,5  29,0  5,5  39,0  5,5  42,0  5,5  25,0  5,5  34,0  5,-5  20,0  5,-5  27,0  5,-5  37,0  5,5  46,0  5,-5  39,0  5,-5  28,0  5,-5  24,0  5,-5  39,0  5,-5  26,0  5,-5  26,0  5,5  25,0  5,5  21,0 "
       style="color:#000000;fill:none;stroke:#ffffff;stroke-width:1;stroke-miterlimit:4;stroke-dasharray:none;marker:none;visibility:visible;display:inline;overflow:visible;enable-background:accumulate" />
    <path
       inkscape:connector-curvature="0"
       id="path690"
       d="m 0,687  41,0  5,5  40,0  5,-5  42,0  5,-5  23,0  5,-5  49,0  5,5  20,0  5,5  28,0  5,5  30,0  5,-5  38,0  5,-5  43,0  5,5  45,0  5,-5  30,0  5,5  22,0  5,5  31,0  5,5  35,0  5,-5  35,0  5,-5  29,0  5,-5  26,0  5,-5  29,0  5,-5  20,0  5,5  38,0 "
       style="color:#000000;fill:none;stroke:#ffffff;stroke-width:1;stroke-miterlimit:4;stroke-dasharray:none;marker:none;visibility:visible;display:inline;overflow:visible;enable-background:accumulate" />
    <path
       inkscape:connector-curvature="0"
       id="path700"
       d="m 0,704  23,0  5,5  25,0  5,5  24,0  5,-5  50,0  5,-5  21,0  5,-5  24,0  5,-5  48,0  5,-5  50,0  5,-5  23,0  5,5  50,0  5,-5  26,0  5,5  35,0  5,5  47,0  5,5  25,0  5,-5  32,0  5,-5  34,0  5,5  38,0  5,5  42,0  5,-5  37,0  5,5  23,0  5,5  21,0 "
       style="color:#000000;fill:none;stroke:#ffffff;stroke-width:1;stroke-miterlimit:4;stroke-dasharray:none;marker:none;visibility:visible;display:inline;overflow:visible;enable-background:accumulate" />
    <path
       inkscape:connector-curvature="0"
       id="path710"
       d="m 0,706  47,0  5,-5  49,0  5,5  25,0  5,5  47,0  5,5  31,0  5,5  22,0  5,5  36,0  5,-5  27,0  5,5  26,0  5,-5  41,0  5,-5  34,0  5,-5  21,0  5,-5  46,0  5,5  50,0  5,-5  38,0  5,-5  48,0  5,5  46,0  5,-5  25,0  5,-5  47,0  5,5  47,0  5,5  31,0 "
       style="color:#000000;fill:none;stroke:#ffffff;stroke-width:1;stroke-miterlimit:4;stroke-dasharray:none;marker:none;visibility:visible;display:inline;overflow:visible;enable-background:accumulate" />
    <path
       inkscape:connector-curvature="0"
       id="path720"
       d="m 0,720  30,0  5,5  45,0  5,5  49,0  5,5  34,0  5,5  33,0  5,-5  47,0  5,5  47,0  5,-5  47,0  5,-5  36,0  5,-5  22,0  5,5  35,0  5,5  22,0  5,-5  48,0  5,-5  40,0  5,5  47,0  5,5  28,0  5,-5  26,0  5,-5  43,0  5,5  21,0  5,-5  47,0  5,-5  31,0 "
       style="color:#000000;fill:none;stroke:#ffffff;stroke-width:1;stroke-miterlimit:4;stroke-dasharray:none;marker:none;visibility:visible;display:inline;overflow:visible;enable-background:accumulate" />
    <path
       inkscape:connector-curvature="0"
       id="path730"
       d="m 0,725  48,0  5,-5  48,0  5,-5  39,0  5,5  45,0  5,-5  44,0  5,5  48,0  5,5  25,0  5,5  34,0  5,-5  30,0  5,-5  49,0  5,-5  22,0  5,5  30,0  5,5  35,0  5,-5  38,0  5,-5  26,0  5,5  47,0  5,-5  40,0  5,-5  45,0  5,-5  46,0  5,5  34,0  5,5  20,0 "
       style="color:#000000;fill:none;stroke:#ffffff;stroke-width:1;stroke-miterlimit:4;stroke-dasharray:none;marker:none;visibility:visible;display:inline;overflow:visible;enable-background:accumulate" />
    <path
       inkscape:connector-curvature="0"
       id="path740"
       d="m 0,738  46,0  5,-5  43,0  5,-5  41,0  5,-5  34,0  5,5  20,0  5,-5  40,0  5,-5  46,0  5,-5  50,0  5,5  34,0  5,-5  41,0  5,5  48,0  5,5  40,0  5,-5  37,0  5,-5  25,0  5,-5  21,0  5,-5  39,0  5,5  46,0  5,-5  32,0  5,5  31,0  5,-5  20,0  5,5  47,0 "
       style="color:#000000;fill:none;stroke:#ffffff;stroke-width:1;stroke-miterlimit:4;stroke-dasharray:none;marker:none;visibility:visible;display:inline;overflow:visible;enable-background:accumulate" />
    <path
       inkscape:connector-curvature="0"
       id="path750"
       d="m 0,747  39,0  5,5  20,0  5,5  35,0  5,5  44,0  5,-5  22,0  5,-5  31,0  5,-5  32,0  5,-5  50,0  5,-5  28,0  5,5  46,0  5,5  29,0  5,5  48,0  5,-5  35,0  5,-5  21,0  5,5  26,0  5,5  39,0  5,5  26,0  5,5  29,0  5,-5  20,0  5,-5  45,0  5,5  39,0 "
       style="color:#000000;fill:none;stroke:#ffffff;stroke-width:1;stroke-miterlimit:4;stroke-dasharray:none;marker:none;visibility:visible;display:inline;overflow:visible;enable-background:accumulate" />
    <path
       inkscape:connector-curvature="0"
       id="path760"
       d="m 0,758  34,0  5,5  50,0  5,-5  39,0  5,-5  31,0  5,5  28,0  5,-5  37,0  5,5  44,0  5,-5  37,0  5,-5  28,0  5,5  22,0  5,5  40,0  5,5  41,0  5,5  40,0  5,-5  33,0  5,-5  43,0  5,5  21,0  5,-5  35,0  5,5  41,0  5,-5  45,0  5,-5  28,0  5,-5  33,0 "
       style="color:#000000;fill:none;stroke:#ffffff;stroke-width:1;stroke-miterlimit:4;stroke-dasharray:none;marker:none;visibility:visible;display:inline;overflow:visible;enable-background:accumulate" />
    <path
       inkscape:connector-curvature="0"
       id="path770"
       d="m 0,775  34,0  5,5  25,0  5,5  41,0  5,-5  36,0  5,-5  22,0  5,-5  32,0  5,5  47,0  5,5  27,0  5,-5  25,0  5,5  40,0  5,-5  49,0  5,5  43,0  5,-5  42,0  5,5  25,0  5,-5  41,0  5,-5  37,0  5,-5  30,0  5,5  49,0  5,-5  32,0  5,5  22,0  5,-5  33,0 "
       style="color:#000000;fill:none;stroke:#ffffff;stroke-width:1;stroke-miterlimit:4;stroke-dasharray:none;marker:none;visibility:visible;display:inline;overflow:visible;enable-background:accumulate" />
    <path
       inkscape:connector-curvature="0"
       id="path780"
       d="m 0,778  40,0  5,5  24,0  5,-5  49,0  5,-5  48,0  5,5  44,0  5,5  24,0  5,-5  38,0  5,5  40,0  5,5  28,0  5,-5  33,0  5,-5  26,0  5,-5  49,0  5,5  47,0  5,-5  29,0  5,-5  42,0  5,5  29,0  5,-5  28,0  5,5  36,0  5,5  25,0  5,-5  45,0  5,-5  31,0 "
       style="color:#000000;fill:none;stroke:#ffffff;stroke-width:1;stroke-miterlimit:4;stroke-dasharray:none;marker:none;visibility:visible;display:inline;overflow:visible;enable-background:accumulate" />
    <path
       inkscape:connector-curvature="0"
       id="path790"
       d="m 0,789  20,0  5,5  47,0  5,5  33,0  5,5  42,0  5,-5  45,0  5,-5  38,0  5,5  48,0  5,-5  29,0  5,-5  34,0  5,5  27,0  5,5  49,0  5,-5  33,0  5,-5  49,0  5,5  42,0  5,-5  41,0  5,5  33,0  5,5  29,0  5,-5  45,0  5,5  45,0  5,-5  36,0  5,5  28,0 "
       style="color:#000000;fill:none;stroke:#ffffff;stroke-width:1;stroke-miterlimit:4;stroke-dasharray:none;marker:none;visibility:visible;display:inline;overflow:visible;enable-background:accumulate" />
    <path
       inkscape:connector-curvature="0"
       id="path800"
       d="m 0,795  40,0  5,-5  47,0  5,5  36,0  5,-5  27,0  5,5  36,0  5,-5  42,0  5,5  35,0  5,-5  29,0  5,5  39,0  5,-5  36,0  5,-5  26,0  5,5  40,0  5,5  23,0  5,-5  28,0  5,-5  28,0  5,5  39,0  5,-5  43,0  5,-5  29,0  5,5  45,0  5,-5  34,0  5,5  39,0 "
       style="color:#000000;fill:none;stroke:#ffffff;stroke-width:1;stroke-miterlimit:4;stroke-dasharray:none;marker:none;visibility:visible;display:inline;overflow:visible;enable-background:accumulate" />
    <path
       inkscape:connector-curvature="0"
       id="path810"
       d="m 0,808  31,0  5,5  48,0  5,-5  46,0  5,-5  29,0  5,5  26,0  5,-5  38,0  5,-5  47,0  5,5  47,0  5,5  46,0  5,5  26,0  5,5  25,0  5,-5  32,0  5,-5  47,0  5,-5  31,0  5,5  36,0  5,-5  29,0  5,-5  48,0  5,-5  41,0  5,-5  35,0  5,5  22,0  5,-5  42,0 "
       style="color:#000000;fill:none;stroke:#ffffff;stroke-width:1;stroke-miterlimit:4;stroke-dasharray:none;marker:none;visibility:visible;display:inline;overflow:visible;enable-background:accumulate" />
    <path
       inkscape:connector-curvature="0"
       id="path820"
       d="m 0,824  44,0  5,-5  39,0  5,5  45,0  5,-5  49,0  5,5  50,0  5,5  22,0  5,5  45,0  5,5  23,0  5,-5  24,0  5,-5  20,0  5,-5  50,0  5,-5  24,0  5,-5  26,0  5,5  45,0  5,-5  43,0  5,-5  24,0  5,5  35,0  5,5  26,0  5,-5  38,0  5,5  39,0  5,5  33,0 "
       style="color:#000000;fill:none;stroke:#ffffff;stroke-width:1;stroke-miterlimit:4;stroke-dasharray:none;marker:none;visibility:visible;display:inline;overflow:visible;enable-background:accumulate" />
    <path
       inkscape:connector-curvature="0"
       id="path830"
       d="m 0,830  27,0  5,5  42,0  5,-5  49,0  5,-5  33,0  5,-5  36,0  5,5  49,0  5,5  31,0  5,5  44,0  5,5  39,0  5,5  33,0  5,5  34,0  5,5  43,0  5,5  20,0  5,-5  31,0  5,5  49,0  5,-5  42,0  5,-5  23,0  5,-5  44,0  5,-5  20,0  5,-5  39,0  5,-5  29,0 "
       style="color:#000000;fill:none;stroke:#ffffff;stroke-width:1;stroke-miterlimit:4;stroke-dasharray:none;marker:none;visibility:visible;display:inline;overflow:visible;enable-background:accumulate" />
    <path
       inkscape:connector-curvature="0"
       id="path840"
       d="m 0,841  20,0  5,-5  35,0  5,5  44,0  5,5  48,0  5,5  46,0  5,-5  29,0  5,-5  29,0  5,5  47,0  5,-5  35,0  5,-5  36,0  5,5  21,0  5,5  25,0  5,5  44,0  5,-5  32,0  5,-5  47,0  5,5  20,0  5,-5  29,0  5,-5  50,0  5,-5  28,0  5,-5  28,0  5,5  21,0 "
       style="color:#000000;fill:none;stroke:#ffffff;stroke-width:1;stroke-miterlimit:4;stroke-dasharray:none;marker:none;visibility:visible;display:inline;overflow:visible;enable-background:accumulate" />
    <path
       inkscape:connector-curvature="0"
       id="path850"
       d="m 0,855  22,0  5,5  40,0  5,-5  36,0  5,-5  47,0  5,5  48,0  5,-5  34,0  5,5  29,0  5,5  34,0  5,-5  27,0  5,-5  25,0  5,-5  25,0  5,-5  32,0  5,5  28,0  5,5  28,0  5,5  34,0  5,5  39,0  5,5  36,0  5,-5  44,0  5,-5  30,0  5,-5  32,0  5,5  48,0 "
       style="color:#000000;fill:none;stroke:#ffffff;stroke-width:1;stroke-miterlimit:4;stroke-dasharray:none;marker:none;visibility:visible;display:inline;overflow:visible;enable-background:accumulate" />
    <path
       inkscape:connector-curvature="0"
       id="path860"
       d="m 0,864  49,0  5,-5  29,0  5,5  22,0  5,-5  44,0  5,-5  26,0  5,5  47,0  5,5  48,0  5,-5  37,0  5,-5  25,0  5,5  28,0  5,-5  30,0  5,5  40,0  5,-5  38,0  5,-5  31,0  5,-5  26,0  5,-5  31,0  5,-5  37,0  5,-5  48,0  5,-5  50,0  5,5  23,0  5,-5  26,0 "
       style="color:#000000;fill:none;stroke:#ffffff;stroke-width:1;stroke-miterlimit:4;stroke-dasharray:none;marker:none;visibility:visible;display:inline;overflow:visible;enable-background:accumulate" />
    <path
       inkscape:connector-curvature="0"
       id="path870"
       d="m 0,875  44,0  5,-5  31,0  5,5  21,0  5,-5  44,0  5,-5  22,0  5,5  37,0  5,5  50,0  5,5  26,0  5,-5  40,0  5,5  48,0  5,5  30,0  5,-5  50,0  5,-5  50,0  5,-5  42,0  5,-5  43,0  5,5  22,0  5,5  28,0  5,-5  35,0  5,5  20,0  5,-5  32,0  5,5  36,0 "
       style="color:#000000;fill:none;stroke:#ffffff;stroke-width:1;stroke-miterlimit:4;stroke-dasharray:none;marker:none;visibility:visible;display:inline;overflow:visible;enable-background:accumulate" />
    <path
       inkscape:connector-curvature="0"
       id="path880"
       d="m 0,879  48,0  5,-5  25,0  5,-5  24,0  5,5  29,0  5,-5  28,0  5,-5  47,0  5,5  30,0  5,-5  48,0  5,-5  22,0  5,-5  36,0  5,5  38,0  5,5  24,0  5,-5  35,0  5,5  43,0  5,-5  37,0  5,-5  22,0  5,-5  27,0  5,5  27,0  5,5  29,0  5,5  33,0  5,-5  38,0 "
       style="color:#000000;fill:none;stroke:#ffffff;stroke-width:1;stroke-miterlimit:4;stroke-dasharray:none;marker:none;visibility:visible;display:inline;overflow:visible;enable-background:accumulate" />
    <path
       inkscape:connector-curvature="0"
       id="path890"
       d="m 0,886  24,0  5,5  25,0  5,-5  44,0  5,5  27,0  5,-5  32,0  5,-5  34,0  5,-5  47,0  5,5  29,0  5,-5  33,0  5,5  32,0  5,5  40,0  5,5  41,0  5,5  40,0  5,-5  40,0  5,5  44,0  5,-5  25,0  5,5  29,0  5,5  39,0  5,-5  44,0  5,-5  35,0  5,5  47,0 "
       style="color:#000000;fill:none;stroke:#ffffff;stroke-width:1;stroke-miterlimit:4;stroke-dasharray:none;marker:none;visibility:visible;display:inline;overflow:visible;enable-background:accumulate" />
    <path
       inkscape:connector-curvature="0"
       id="path900"
       d="m 0,897  50,0  5,-5  32,0  5,5  22,0  5,5  50,0  5,5  50,0  5,-5  36,0  5,-5  38,0  5,-5  32,0  5,5  29,0  5,5  30,0  5,-5  20,0  5,5  49,0  5,5  35,0  5,5  20,0  5,5  48,0  5,-5  37,0  5,5  43,0  5,5  40,0  5,-5  28,0  5,5  42,0  5,-5  26,0 "
       style="color:#000000;fill:none;stroke:#ffffff;stroke-width:1;stroke-miterlimit:4;stroke-dasharray:none;marker:none;visibility:visible;display:inline;overflow:visible;enable-background:accumulate" />
    <path
       inkscape:connector-curvature="0"
       id="path910"
       d="m 0,909  21,0  5,-5  22,0  5,-5  41,0  5,5  21,0  5,5  34,0  5,5  25,0  5,-5  26,0  5,5  37,0  5,5  27,0  5,5  34,0  5,5  44,0  5,5  43,0  5,-5  24,0  5,5  34,0  5,-5  49,0  5,-5  23,0  5,5  50,0  5,5  33,0  5,5  26,0  5,5  21,0  5,-5  39,0 "
       style="color:#000000;fill:none;stroke:#ffffff;stroke-width:1;stroke-miterlimit:4;stroke-dasharray:none;marker:none;visibility:visible;display:inline;overflow:visible;enable-background:accumulate" />
    <path
       inkscape:connector-curvature="0"
       id="path920"
       d="m 0,924  28,0  5,-5  34,0  5,5  33,0  5,5  45,0  5,5  42,0  5,-5  50,0  5,-5  48,0  5,-5  31,0  5,5  46,0  5,5  42,0  5,5  24,0  5,5  50,0  5,5  32,0  5,5  47,0  5,-5  21,0  5,5  35,0  5,5  50,0  5,5  40,0  5,-5  36,0  5,-5  38,0  5,-5  39,0 "
       style="color:#000000;fill:none;stroke:#ffffff;stroke-width:1;stroke-miterlimit:4;stroke-dasharray:none;marker:none;visibility:visible;display:inline;overflow:visible;enable-background:accumulate" />
    <path
       inkscape:connector-curvature="0"
       id="path930"
       d="m 0,930  24,0  5,5  27,0  5,-5  35,0  5,-5  44,0  5,5  36,0  5,-5  30,0  5,-5  48,0  5,-5  38,0  5,-5  48,0  5,5  36,0  5,-5  44,0  5,5  33,0  5,5  41,0  5,5  43,0  5,-5  39,0  5,5  38,0  5,-5  23,0  5,5  26,0  5,-5  24,0  5,5  40,0  5,5  41,0 "
       style="color:#000000;fill:none;stroke:#ffffff;stroke-width:1;stroke-miterlimit:4;stroke-dasharray:none;marker:none;visibility:visible;display:inline;overflow:visible;enable-background:accumulate" />
    <path
       inkscape:connector-curvature="0"
       id="path940"
       d="m 0,943  35,0  5,5  32,0  5,5  32,0  5,-5  47,0  5,5  46,0  5,5  33,0  5,5  25,0  5,-5  50,0  5,-5  39,0  5,-5  39,0  5,-5  46,0  5,-5  24,0  5,-5  35,0  5,-5  44,0  5,5  37,0  5,-5  29,0  5,-5  30,0  5,-5  42,0  5,-5  47,0  5,-5  33,0  5,5  47,0 "
       style="color:#000000;fill:none;stroke:#ffffff;stroke-width:1;stroke-miterlimit:4;stroke-dasharray:none;marker:none;visibility:visible;display:inline;overflow:visible;enable-background:accumulate" />
    <path
       inkscape:connector-curvature="0"
       id="path950"
       d="m 0,952  29,0  5,5  42,0  5,-5  42,0  5,-5  37,0  5,5  26,0  5,5  23,0  5,-5  43,0  5,-5  49,0  5,-5  30,0  5,5  48,0  5,-5  50,0  5,5  45,0  5,-5  26,0  5,5  31,0  5,5  23,0  5,5  50,0  5,5  32,0  5,-5  32,0  5,5  34,0  5,-5  36,0  5,-5  38,0 "
       style="color:#000000;fill:none;stroke:#ffffff;stroke-width:1;stroke-miterlimit:4;stroke-dasharray:none;marker:none;visibility:visible;display:inline;overflow:visible;enable-background:accumulate" />
    <path
       inkscape:connector-curvature="0"
       id="path960"
       d="m 0,961  45,0  5,5  37,0  5,5  32,0  5,5  29,0  5,-5  23,0  5,-5  31,0  5,5  23,0  5,5  35,0  5,-5  48,0  5,5  39,0  5,5  37,0  5,-5  45,0  5,5  33,0  5,5  41,0  5,-5  45,0  5,5  35,0  5,-5  42,0  5,-5  27,0  5,5  28,0  5,5  38,0  5,5  31,0 "
       style="color:#000000;fill:none;stroke:#ffffff;stroke-width:1;stroke-miterlimit:4;stroke-dasharray:none;marker:none;visibility:visible;display:inline;overflow:visible;enable-background:accumulate" />
    <path
       inkscape:connector-curvature="0"
       id="path970"
       d="m 0,968  39,0  5,5  21,0  5,-5  37,0  5,5  27,0  5,-5  37,0  5,-5  35,0  5,-5  34,0  5,5  43,0  5,5  22,0  5,5  31,0  5,5  40,0  5,5  50,0  5,5  44,0  5,5  27,0  5,5  42,0  5,5  45,0  5,-5  25,0  5,5  28,0  5,5  34,0  5,5  50,0  5,-5  26,0 "
       style="color:#000000;fill:none;stroke:#ffffff;stroke-width:1;stroke-miterlimit:4;stroke-dasharray:none;marker:none;visibility:visible;display:inline;overflow:visible;enable-background:accumulate" />
    <path
       inkscape:connector-curvature="0"
       id="path980"
       d="m 0,983  49,0  5,-5  33,0  5,-5  33,0  5,5  44,0  5,5  31,0  5,-5  43,0  5,-5  35,0  5,5  41,0  5,5  32,0  5,-5  22,0  5,-5  36,0  5,5  26,0  5,5  34,0  5,-5  49,0  5,5  34,0  5,5  42,0  5,-5  35,0  5,5  43,0  5,5  32,0  5,-5  24,0  5,5  34,0 "
       style="color:#000000;fill:none;stroke:#ffffff;stroke-width:1;stroke-miterlimit:4;stroke-dasharray:none;marker:none;visibility:visible;display:inline;overflow:visible;enable-background:accumulate" />
    <path
       inkscape:connector-curvature="0"
       id="path990"
       d="m 0,989  27,0  5,5  22,0  5,5  24,0  5,5  42,0  5,5  41,0  5,5  29,0  5,-5  38,0  5,5  41,0  5,5  33,0  5,5  36,0  5,-5  32,0  5,5  50,0  5,-5  29,0  5,5  24,0  5,-5  22,0  5,5  34,0  5,5  39,0  5,-5  22,0  5,5  26,0  5,5  21,0  5,5  50,0 "
       style="color:#000000;fill:none;stroke:#ffffff;stroke-width:1;stroke-miterlimit:4;stroke-dasharray:none;marker:none;visibility:visible;display:inline;overflow:visible;enable-background:accumulate" />
  </g>
</svg>
